<svg xmlns="http://www.w3.org/2000/svg" xmlns:xlink="http://www.w3.org/1999/xlink" id="Layer_1" x="0px" y="0px" width="2000px" height="1500px" viewBox="0 0 2000 1500" xml:space="preserve">
<title>02.Virus</title>
<g id="_02.Virus">
	<path fill="#FFFFFF" d="M1000,1218.75c-258.884,0-468.75-209.866-468.75-468.75S741.116,281.25,1000,281.25   S1468.75,491.116,1468.75,750C1467.468,1008.351,1258.351,1217.468,1000,1218.75z M1000,328.125   c-232.995,0-421.875,188.88-421.875,421.875s188.88,421.875,421.875,421.875S1421.875,982.995,1421.875,750   C1420.594,517.537,1232.463,329.406,1000,328.125z"></path>
	<path fill="#FFFFFF" d="M1000,328.125c-12.944,0-23.438-10.493-23.438-23.438V199.219c0-12.944,10.493-23.438,23.438-23.438   s23.438,10.493,23.438,23.438v105.469C1023.438,317.632,1012.944,328.125,1000,328.125z"></path>
	<path fill="#FFFFFF" d="M1000,222.656c-41.422,0-75-33.579-75-75s33.579-75,75-75c41.422,0,75,33.579,75,75   S1041.422,222.656,1000,222.656L1000,222.656z M1000,117.188c-15.533,0-28.125,12.592-28.125,28.125s12.592,28.125,28.125,28.125   s28.125-12.592,28.125-28.125S1015.533,117.188,1000,117.188L1000,117.188z"></path>
	<path fill="#FFFFFF" d="M1550.781,773.438h-105.469c-12.944,0-23.438-10.493-23.438-23.438s10.493-23.438,23.438-23.438h105.469   c12.944,0,23.438,10.493,23.438,23.438S1563.726,773.438,1550.781,773.438z"></path>
	<path fill="#FFFFFF" d="M1604.688,825c-41.422,0-75-33.579-75-75s33.578-75,75-75s75,33.579,75,75S1646.109,825,1604.688,825   L1604.688,825z M1604.688,719.531c-15.533,0.054-28.081,12.689-28.027,28.223c0.055,15.533,12.69,28.081,28.223,28.027   c14.587-0.051,26.714-11.245,27.93-25.781c0-15.533-12.592-28.125-28.125-28.125l0,0V719.531z"></path>
	<path fill="#FFFFFF" d="M1000,1324.219c-12.944,0-23.438-10.493-23.438-23.438v-105.469c0-12.944,10.493-23.438,23.438-23.438   s23.438,10.493,23.438,23.438v105.469C1023.438,1313.726,1012.944,1324.219,1000,1324.219z"></path>
	<path fill="#FFFFFF" d="M1000,1429.688c-41.422,0-75-33.579-75-75c0-41.422,33.579-75,75-75c41.422,0,75,33.578,75,75   C1075,1396.108,1041.422,1429.688,1000,1429.688L1000,1429.688z M1000,1324.219c-15.533,0-28.125,12.592-28.125,28.125   s12.592,28.125,28.125,28.125s28.125-12.592,28.125-28.125S1015.533,1324.219,1000,1324.219L1000,1324.219z"></path>
	<path fill="#FFFFFF" d="M554.688,773.438H449.219c-12.944,0-23.438-10.493-23.438-23.438s10.493-23.438,23.438-23.438h105.469   c12.944,0,23.438,10.493,23.438,23.438S567.632,773.438,554.688,773.438z"></path>
	<path fill="#FFFFFF" d="M395.313,825c-41.401-1.294-73.914-35.906-72.62-77.307c1.294-41.401,35.906-73.914,77.307-72.62   c40.475,1.266,72.637,34.433,72.656,74.927c0.021,41.421-33.542,75.017-74.963,75.037C396.899,825.037,396.105,825.024,395.313,825   z M395.313,719.531c-15.474,1.354-26.921,14.995-25.567,30.469s14.995,26.921,30.469,25.567   c13.598-1.189,24.378-11.97,25.567-25.567c0.054-15.533-12.494-28.169-28.027-28.223c-0.814-0.003-1.629,0.029-2.441,0.098V719.531   z"></path>
	<path fill="#FFFFFF" d="M1314.063,300c-41.421,0-75-33.579-75-75s33.579-75,75-75c41.422,0,75,33.579,75,75   S1355.484,300,1314.063,300L1314.063,300z M1314.063,194.531c-15.533,0-28.125,12.592-28.125,28.125s12.592,28.125,28.125,28.125   s28.125-12.592,28.125-28.125c-1.222-14.611-13.463-25.832-28.125-25.781V194.531z"></path>
	<path fill="#FFFFFF" d="M1229.688,391.406l-11.719-4.688c-10.955-6.896-14.245-21.366-7.35-32.32   c0.104-0.166,0.21-0.329,0.318-0.492l58.594-89.063c7.119-11.002,21.81-14.15,32.813-7.031s14.15,21.81,7.031,32.813   l-58.594,89.063C1246.455,387.191,1238.344,391.697,1229.688,391.406z"></path>
	<path fill="#FFFFFF" d="M475,1141.406c-41.422,0-75-33.579-75-75s33.578-75,75-75s75,33.579,75,75S516.422,1141.406,475,1141.406   L475,1141.406z M475,1035.938c-15.533,0-28.125,12.592-28.125,28.125s12.592,28.125,28.125,28.125s28.125-12.592,28.125-28.125   S490.533,1035.938,475,1035.938L475,1035.938z"></path>
	<path fill="#FFFFFF" d="M526.563,1061.719c-12.887-1.218-22.347-12.651-21.129-25.538c0.626-6.636,4.049-12.69,9.41-16.649   l89.063-58.594c11.003-7.119,25.693-3.972,32.813,7.031s3.972,25.693-7.031,32.813l-89.063,58.594L526.563,1061.719z"></path>
	<path fill="#FFFFFF" d="M657.813,1333.594c-41.417-0.602-74.504-34.665-73.902-76.082s34.665-74.504,76.082-73.902   c41.417,0.603,74.504,34.665,73.902,76.082c-0.418,28.74-17.225,54.714-43.27,66.871   C680.359,1331.354,669.141,1333.759,657.813,1333.594z M657.813,1228.125h-11.719c-14.238,6.472-20.534,23.262-14.063,37.5   s23.262,20.534,37.5,14.063l0,0c14.695-5.032,22.528-21.025,17.495-35.721c-3.095-9.037-10.566-15.887-19.839-18.186   L657.813,1228.125z"></path>
	<path fill="#FFFFFF" d="M692.969,1235.156l-11.719-4.688c-10.955-6.896-14.245-21.366-7.35-32.32   c0.104-0.166,0.21-0.33,0.318-0.492l56.25-91.406c7.119-11.003,21.81-14.15,32.813-7.031s14.15,21.81,7.031,32.813l0,0   l-56.25,91.406C709.736,1230.941,701.625,1235.447,692.969,1235.156z"></path>
	<path fill="#FFFFFF" d="M1499.219,1181.25l-28.125-4.688c-38.455-15.392-57.152-59.043-41.761-97.499   c15.392-38.455,59.044-57.152,97.499-41.761c17.896,7.163,32.349,20.942,40.355,38.479l0,0   c17.301,37.636,0.816,82.17-36.818,99.471c-0.999,0.459-2.008,0.896-3.025,1.311L1499.219,1181.25z M1499.219,1075.781H1487.5   c-14.886,4.438-23.356,20.102-18.919,34.987c2.711,9.094,9.825,16.208,18.919,18.919c6.765,2.736,14.329,2.736,21.094,0   c15.533-3.236,25.502-18.451,22.266-33.984s-18.451-25.502-33.984-22.266l0,0L1499.219,1075.781z"></path>
	<path fill="#FFFFFF" d="M1454.688,1089.844l-11.719-4.688l-91.406-58.594c-11.003-7.119-14.15-21.81-7.031-32.813   s21.81-14.15,32.813-7.031l89.063,58.594c10.412,7.689,12.62,22.364,4.931,32.776c-3.959,5.362-10.014,8.784-16.649,9.411V1089.844   z"></path>
	<path fill="#FFFFFF" d="M1328.125,1342.969c-41.422-0.021-74.983-33.615-74.963-75.037c0.02-41.421,33.615-74.983,75.036-74.963   c40.495,0.02,73.661,32.182,74.927,72.656l0,0c1.295,41.401-31.219,76.013-72.619,77.307   C1329.712,1342.957,1328.919,1342.969,1328.125,1342.969z M1328.125,1237.5L1328.125,1237.5   c-15.533-0.054-28.169,12.494-28.223,28.027c-0.003,0.814,0.029,1.629,0.098,2.441c1.119,15.045,13.08,27.006,28.125,28.125   c15.533,0.054,28.169-12.494,28.223-28.027c0.003-0.814-0.029-1.629-0.098-2.441l0,0   C1356.25,1250.092,1343.658,1237.5,1328.125,1237.5L1328.125,1237.5z"></path>
	<path fill="#FFFFFF" d="M1300,1237.5c-7.377,0-14.324-3.474-18.75-9.375l-60.938-89.063c-9.677-8.597-10.553-23.411-1.956-33.088   s23.411-10.553,33.088-1.956c2.843,2.525,5.028,5.704,6.368,9.263l60.938,89.063c7.167,10.778,4.239,25.327-6.539,32.494   c-0.163,0.108-0.327,0.214-0.492,0.318L1300,1237.5z"></path>
	<path fill="#FFFFFF" d="M1539.063,536.719h-4.688c-41.401-1.295-73.914-35.906-72.619-77.307   c1.294-41.401,35.905-73.914,77.307-72.62s73.914,35.906,72.619,77.308C1610.444,503.682,1578.646,535.481,1539.063,536.719z    M1539.063,431.25c-15.52,0.647-27.576,13.753-26.929,29.272s13.753,27.576,29.272,26.929s27.576-13.753,26.929-29.272   c-0.609-14.612-12.316-26.319-26.929-26.929H1539.063z"></path>
	<path fill="#FFFFFF" d="M1393.75,562.5c-12.913,0.895-24.106-8.85-25-21.763c-0.665-9.596,4.602-18.624,13.281-22.769l93.75-53.906   c12.091-4.622,25.64,1.433,30.262,13.523c3.566,9.331,0.827,19.897-6.824,26.32l-93.75,53.906L1393.75,562.5z"></path>
	<path fill="#FFFFFF" d="M714.063,285.938h-4.688c-41.401-1.294-73.914-35.906-72.619-77.307   c1.294-41.401,35.905-73.914,77.307-72.62s73.914,35.906,72.619,77.307C785.444,252.9,753.646,284.7,714.063,285.938z    M714.063,180.469c-15.52,0.647-27.576,13.753-26.929,29.272s13.753,27.576,29.272,26.929s27.576-13.753,26.929-29.272   c-0.609-14.612-12.316-26.319-26.929-26.929H714.063z"></path>
	<path fill="#FFFFFF" d="M791.406,379.688c-8.656,0.291-16.768-4.215-21.094-11.719l-53.906-93.75   c-8.322-9.914-7.031-24.698,2.883-33.02s24.697-7.032,33.02,2.882c1.678,1.999,3.01,4.263,3.941,6.7l53.906,93.75   c6.623,11.121,2.977,25.506-8.146,32.129c-0.402,0.24-0.813,0.468-1.229,0.684L791.406,379.688z"></path>
	<path fill="#FFFFFF" d="M498.438,475.781l-28.125-4.688c-38.742-14.656-58.267-57.944-43.61-96.686   c14.656-38.742,57.944-58.267,96.687-43.61c38.741,14.656,58.266,57.944,43.609,96.686c-6.873,18.17-20.529,32.964-38.092,41.267   L498.438,475.781z M498.438,370.313h-11.719c-14.186,6.329-20.554,22.959-14.225,37.145c0.054,0.119,0.107,0.237,0.162,0.355l0,0   c6.473,14.12,23.166,20.32,37.286,13.848s20.32-23.167,13.848-37.287c-4.55-9.926-14.434-16.321-25.353-16.404V370.313z"></path>
	<path fill="#FFFFFF" d="M634.375,517.969l-11.719-4.688l-91.406-56.25c-9.914-8.322-11.205-23.105-2.883-33.02   c6.423-7.651,16.989-10.392,26.32-6.824l91.406,58.594c10.413,7.689,12.62,22.364,4.931,32.776   C647.065,513.92,641.011,517.342,634.375,517.969L634.375,517.969z"></path>
	<path fill="#FFFFFF" d="M1128.906,457.031h-9.375l-56.25-16.406c-12.944-2.589-21.339-15.181-18.75-28.125   s15.181-21.339,28.125-18.75l65.625,18.75c11.657,5.626,16.547,19.638,10.921,31.295   C1145.419,451.633,1137.604,456.729,1128.906,457.031L1128.906,457.031z"></path>
	<path fill="#FFFFFF" d="M1000,1115.625c-201.282-16.154-351.357-192.421-335.203-393.703   C679.15,543.076,821.154,401.072,1000,386.719c12.944,0,23.438,10.493,23.438,23.438s-10.493,23.438-23.438,23.438   c-176.036,1.296-317.691,145.052-316.396,321.088c1.296,176.035,145.052,317.69,321.088,316.395s317.69-145.052,316.396-321.087   c-0.811-110.124-58.409-212.028-152.338-269.521c-11.002-7.119-14.15-21.81-7.031-32.813s21.81-14.15,32.813-7.031   c170.863,107.615,222.136,333.367,114.52,504.23C1242.168,1051.046,1125.498,1115.514,1000,1115.625z"></path>
	<path fill="#FFFFFF" d="M929.688,750c-51.776,0-93.75-41.974-93.75-93.75s41.974-93.75,93.75-93.75s93.75,41.974,93.75,93.75   S981.464,750,929.688,750z M929.688,609.375c-25.889,0-46.875,20.986-46.875,46.875s20.986,46.875,46.875,46.875   s46.875-20.986,46.875-46.875S955.576,609.375,929.688,609.375z"></path>
	<path fill="#FFFFFF" d="M1164.063,843.75c-51.776,0-93.75-41.974-93.75-93.75s41.974-93.75,93.75-93.75s93.75,41.974,93.75,93.75   S1215.839,843.75,1164.063,843.75z M1164.063,703.125c-25.889,0-46.875,20.986-46.875,46.875s20.986,46.875,46.875,46.875   s46.875-20.986,46.875-46.875S1189.951,703.125,1164.063,703.125z"></path>
	<path fill="#FFFFFF" d="M1007.031,853.125l-16.406-7.031l-14.063-9.375c-11.649-5.825-16.372-19.991-10.547-31.641   s19.991-16.372,31.641-10.547l25.781,16.406c9.063,9.243,8.916,24.082-0.327,33.145c-4.3,4.216-10.058,6.614-16.079,6.699V853.125z   "></path>
	<path fill="#FFFFFF" d="M953.125,996.094c-58.228-1.57-104.157-50.047-102.587-108.274c1.221-45.255,31.187-84.683,74.462-97.976   c11.681-5.578,25.672-0.631,31.249,11.05c5.578,11.681,0.631,25.672-11.05,31.25c-2.661,1.271-5.538,2.027-8.48,2.231   c-31.066,9.061-48.904,41.59-39.844,72.656s41.59,48.904,72.656,39.844c25-7.292,42.188-30.208,42.188-56.25   c0.25-3.12,0.25-6.255,0-9.375c-1.941-12.944,6.978-25.012,19.922-26.953s25.012,6.978,26.953,19.922   c9.065,57.539-30.23,111.532-87.77,120.598C964.971,995.738,959.05,996.166,953.125,996.094z"></path>
</g>
</svg>