<svg xmlns="http://www.w3.org/2000/svg" xmlns:xlink="http://www.w3.org/1999/xlink" id="Layer_1" x="0px" y="0px" width="250px" height="250px" viewBox="0 0 250 250" xml:space="preserve">
<metadata>

                                                                                                    
                                                                                                    
                                                                                                    
                                                                                                    
                                                                                                    
                                                                                                    
                                                                                                    
                                                                                                    
                                                                                                    
                                                                                                    
                                                                                                    
                                                                                                    
                                                                                                    
                                                                                                    
                                                                                                    
                                                                                                    
                                                                                                    
                                                                                                    
                                                                                                    
                                                                                                    
                           

	</metadata>
<g id="_01.Bacteria">
	<path fill="#FFFFFF" d="M22.323,225.879C3.835,215.242-1.344,196.021,6.669,170.121c1.12-2.803,24.472-62.203,35.533-81.429   c7.757-12.353,16.237-24.235,25.397-35.585c1.481-1.866,4.195-2.177,6.061-0.696c1.864,1.48,2.178,4.195,0.695,6.06   c-9.109,11.045-17.571,22.607-25.339,34.633c-10.639,18.487-34.258,79.208-34.683,79.949c-6.413,21.408-2.175,37.135,12.245,45.432   c13.873,8.006,31.498,4.842,41.714-7.494c2.089-2.547,3.742-5.418,4.893-8.506c5.598-14.002,24.202-60.877,33.35-76.775   c9.148-15.899,33.416-45.243,43.931-58.386c2.886-3.401,5.011-7.382,6.225-11.674c3.645-14.293-2.557-29.278-15.232-36.817   c-16.27-9.36-24.783-10.815-45.647,12.615l0,0c0,0-6.584,8.022-15.239,18.789c-1.481,1.866-4.195,2.177-6.061,0.697   c-1.865-1.48-2.178-4.194-0.697-6.06c8.657-10.768,15.243-18.792,15.243-18.792c24.098-26.488,36.69-26.132,56.654-14.645   c16.196,9.426,24.14,28.478,19.438,46.618c-1.591,5.532-4.369,10.651-8.139,15.001c-8.231,10.029-35.421,43.598-43.292,57.278   c-7.871,13.68-27.327,62.035-32.711,75.668c-1.457,3.887-3.542,7.51-6.17,10.723C61.89,232.148,39.723,236.01,22.323,225.879z"></path>
	<path fill="#FFFFFF" d="M149.624,225.307c-28.589-16.449-38.43-52.957-21.979-81.545c16.449-28.589,52.957-38.429,81.547-21.979   c28.586,16.45,38.427,52.96,21.977,81.546C214.719,231.916,178.21,241.758,149.624,225.307z M204.935,129.178   c-24.504-14.1-55.796-5.667-69.896,18.838c-14.099,24.504-5.665,55.799,18.841,69.896c24.502,14.1,55.795,5.664,69.894-18.838   C237.872,174.57,229.438,143.275,204.935,129.178z"></path>
	<path fill="#FFFFFF" d="M201.238,127.051c-2.044-1.176-2.744-3.784-1.569-5.826l6.381-11.091c1.175-2.042,3.782-2.745,5.825-1.57   c2.041,1.175,2.745,3.783,1.569,5.825l-6.383,11.092C205.888,127.521,203.28,128.225,201.238,127.051z"></path>
	<path fill="#FFFFFF" d="M229.767,158.723c-2.025-1.205-2.69-3.82-1.488-5.848c0.563-0.943,1.462-1.633,2.518-1.93l12.231-3.295   c2.34-0.285,4.466,1.379,4.751,3.719c0.23,1.881-0.809,3.689-2.553,4.436l-12.23,3.297   C231.911,159.406,230.749,159.268,229.767,158.723z"></path>
	<path fill="#FFFFFF" d="M236.437,211.283l-11.092-6.385c-2.045-1.176-2.744-3.781-1.571-5.824c1.178-2.043,3.785-2.746,5.826-1.572   l11.09,6.383c2.044,1.176,2.745,3.783,1.57,5.826C241.086,211.754,238.479,212.455,236.437,211.283z"></path>
	<path fill="#FFFFFF" d="M193.642,243.744c-0.968-0.574-1.67-1.508-1.949-2.6l-3.298-12.23c-0.286-2.34,1.377-4.465,3.719-4.752   c1.882-0.229,3.688,0.811,4.436,2.553l3.298,12.234c0.591,2.279-0.778,4.607-3.061,5.197   C195.725,244.422,194.599,244.277,193.642,243.744z"></path>
	<path fill="#FFFFFF" d="M135.466,235.369c-2.041-1.176-2.745-3.783-1.569-5.824l6.383-11.092c1.174-2.043,3.781-2.746,5.823-1.568   c2.043,1.174,2.745,3.779,1.571,5.822l-6.383,11.092C140.116,235.844,137.509,236.543,135.466,235.369z"></path>
	<path fill="#FFFFFF" d="M105.165,194.807c-2.024-1.205-2.692-3.824-1.489-5.85c0.562-0.943,1.462-1.633,2.518-1.928l12.233-3.295   c2.336-0.287,4.463,1.377,4.748,3.717c0.231,1.883-0.808,3.688-2.551,4.438l-12.232,3.295   C107.307,195.488,106.148,195.352,105.165,194.807z"></path>
	<path fill="#FFFFFF" d="M125.517,147.459l-11.091-6.383c-2.042-1.174-2.745-3.781-1.57-5.824c1.175-2.041,3.783-2.746,5.824-1.57   l11.093,6.383c2.041,1.174,2.745,3.783,1.57,5.824C130.167,147.932,127.559,148.633,125.517,147.459z"></path>
	<path fill="#FFFFFF" d="M155.063,122.625c-0.968-0.574-1.669-1.508-1.951-2.598l-3.297-12.232c-0.285-2.338,1.379-4.465,3.718-4.75   c1.883-0.23,3.688,0.811,4.438,2.553l3.297,12.232c0.59,2.28-0.779,4.608-3.06,5.198   C157.146,123.304,156.021,123.16,155.063,122.625L155.063,122.625z"></path>
	<path fill="#FFFFFF" d="M196.881,168.834c-6.126-3.525-8.234-11.348-4.71-17.475c3.524-6.123,11.348-8.232,17.475-4.707   c6.127,3.523,8.233,11.346,4.709,17.475C210.83,170.252,203.006,172.361,196.881,168.834z M205.392,154.047   c-2.043-1.178-4.653-0.473-5.826,1.57c-1.176,2.041-0.472,4.648,1.569,5.824c2.043,1.174,4.65,0.471,5.825-1.57   C208.136,157.828,207.434,155.221,205.392,154.047z"></path>
	<path fill="#FFFFFF" d="M164.502,150.697c-0.966-0.576-1.67-1.51-1.949-2.6c-0.857-7.016,4.137-13.396,11.152-14.252   c5.645-0.688,11.066,2.432,13.312,7.658c-0.001,2.355-1.912,4.266-4.268,4.266c-1.407,0-2.723-0.693-3.519-1.855   c-0.93-2.164-3.436-3.166-5.601-2.238c-1.744,0.748-2.785,2.555-2.554,4.438c0.589,2.281-0.778,4.609-3.06,5.199   c-1.063,0.271-2.188,0.131-3.146-0.402L164.502,150.697z"></path>
	<path fill="#FFFFFF" d="M72.627,87.989c-0.966-0.574-1.668-1.508-1.949-2.597c-0.856-7.016,4.138-13.396,11.153-14.253   c5.646-0.688,11.067,2.432,13.31,7.66c0,2.354-1.91,4.266-4.266,4.265c-1.408,0-2.724-0.694-3.519-1.854   c-0.929-2.166-3.438-3.167-5.602-2.239c-1.744,0.748-2.783,2.554-2.554,4.436c0.592,2.281-0.778,4.608-3.06,5.199   c-1.061,0.274-2.188,0.129-3.146-0.402L72.627,87.989z"></path>
	<path fill="#FFFFFF" d="M34.334,154.541c-0.966-0.574-1.669-1.508-1.95-2.6c-0.856-7.014,4.138-13.395,11.153-14.252   c5.646-0.688,11.069,2.434,13.311,7.658c0,2.357-1.91,4.268-4.265,4.266c-1.407,0-2.724-0.693-3.52-1.854   c-0.928-2.166-3.437-3.168-5.603-2.238c-1.742,0.746-2.782,2.553-2.552,4.438c0.591,2.279-0.779,4.607-3.06,5.197   c-1.062,0.275-2.187,0.131-3.145-0.402L34.334,154.541z"></path>
	<path fill="#FFFFFF" d="M85.466,129.826c-2.027-1.201-2.692-3.82-1.49-5.846c0.562-0.941,1.462-1.632,2.518-1.928   c2.236-0.626,3.561-2.928,2.978-5.177c-0.469-2.307-2.721-3.8-5.029-3.33c-0.175,0.037-0.348,0.083-0.516,0.14   c-2.165,0.928-4.674-0.074-5.602-2.24c-0.929-2.166,0.072-4.672,2.238-5.601c0.372-0.16,0.765-0.266,1.165-0.314   c6.712-1.517,13.467,2.369,15.528,8.935c1.746,6.746-2.226,13.649-8.935,15.53C87.378,130.268,86.371,130.209,85.466,129.826z"></path>
	<path fill="#FFFFFF" d="M189.298,210.242c-2.901-1.727-5.006-4.529-5.851-7.799c-0.928-2.166,0.073-4.672,2.238-5.6   c2.166-0.928,4.673,0.072,5.602,2.24c0.16,0.369,0.265,0.762,0.313,1.164c0.63,2.234,2.93,3.561,5.178,2.979   c2.236-0.629,3.561-2.93,2.979-5.178c-0.285-2.34,1.378-4.465,3.717-4.75c1.884-0.23,3.69,0.811,4.438,2.553   c1.771,6.84-2.338,13.822-9.181,15.596C195.549,212.271,192.171,211.838,189.298,210.242z"></path>
	<path fill="#FFFFFF" d="M106.249,62.059l-0.74-0.425c-8.474-8.183-8.711-21.683-0.53-30.159c8.183-8.474,21.685-8.711,30.158-0.528   c8.476,8.181,8.712,21.683,0.53,30.157c-0.552,0.572-1.137,1.114-1.75,1.62c-1.829,1.528-4.554,1.284-6.082-0.547   s-1.283-4.554,0.547-6.083l0,0c5.402-4.558,6.085-12.632,1.526-18.034c-4.56-5.399-12.633-6.083-18.035-1.525   c-5.399,4.56-6.083,12.633-1.523,18.034c0.327,0.39,0.677,0.758,1.05,1.104c1.925,1.379,2.367,4.059,0.989,5.982   c-1.38,1.925-4.059,2.367-5.982,0.987L106.249,62.059z"></path>
	<path fill="#FFFFFF" d="M116.499,66.48c-2-1.244-2.613-3.875-1.367-5.875c0.837-1.345,2.351-2.115,3.931-2l4.022-0.146   c2.239-0.729,4.646,0.495,5.376,2.735c0.729,2.241-0.495,4.647-2.736,5.376c-0.332,0.11-0.676,0.176-1.024,0.2l-6.509,0.193   L116.499,66.48z"></path>
	<path fill="#FFFFFF" d="M43.87,203.828c-8.168-4.699-10.979-15.133-6.28-23.301c4.7-8.164,15.13-10.979,23.298-6.277   c8.169,4.699,10.979,15.131,6.28,23.297C62.47,205.713,52.037,208.527,43.87,203.828z M56.634,181.643   c-4.084-2.35-9.3-0.943-11.65,3.143c-2.351,4.082-0.944,9.299,3.141,11.648c4.084,2.352,9.298,0.943,11.648-3.143   C62.124,189.209,60.718,183.992,56.634,181.643z"></path>
	<path fill="#FFFFFF" d="M165.925,188.424c-1.913-1.086-2.684-3.447-1.784-5.455c0.583-1.238,0.86-2.596,0.805-3.965   c0.382-2.324,2.573-3.902,4.898-3.521c1.564,0.254,2.856,1.355,3.357,2.857c0.265,2.637-0.088,5.299-1.026,7.775   c-0.957,2.154-3.475,3.125-5.631,2.17c-0.013-0.008-0.026-0.012-0.038-0.018L165.925,188.424z"></path>
	<path fill="#FFFFFF" d="M147.598,194.613c-8.165-4.699-10.978-15.133-6.279-23.299c4.699-8.168,15.132-10.979,23.298-6.279   c2.042,1.176,2.745,3.783,1.571,5.824c-1.175,2.041-3.782,2.744-5.823,1.57c-4.061-2.391-9.292-1.035-11.682,3.021   c-2.39,4.064-1.037,9.293,3.024,11.684c2.174,1.277,4.804,1.527,7.181,0.688c2.113-1.039,4.672-0.172,5.712,1.943   c1.04,2.111,0.171,4.67-1.943,5.711c-0.316,0.154-0.647,0.27-0.987,0.344C157.022,197.469,151.893,197.027,147.598,194.613z"></path>
</g>
</svg>