<svg xmlns="http://www.w3.org/2000/svg" xmlns:xlink="http://www.w3.org/1999/xlink" id="Layer_1" x="0px" y="0px" width="895px" height="1945px" viewBox="0 0 895 1945" xml:space="preserve">
<metadata>

                                                                                                    
                                                                                                    
                                                                                                    
                                                                                                    
                                                                                                    
                                                                                                    
                                                                                                    
                                                                                                    
                                                                                                    
                                                                                                    
                                                                                                    
                                                                                                    
                                                                                                    
                                                                                                    
                                                                                                    
                                                                                                    
                                                                                                    
                                                                                                    
                                                                                                    
                                                                                                    
                           

	</metadata>
<g>
	<g>
		<ellipse fill="#EAEAEA" cx="491.288" cy="1900.398" rx="264.205" ry="42.826"></ellipse>
		<g>
			<g>
				<path fill="#F7D0C3" d="M383.566,1846.021c0,0-41.195-339.277-18.299-549.338l129.654,4.795      c-8.592,100.238-35.33,184.402-28.64,255.848c13.845,147.861-19.153,243.152-18.975,298.797c0,0,16.285,44.854,2.089,44.371      c-14.197-0.484-150.381-5.117-168.26-5.725c-12.36-0.422-10.566-22.684,11.18-19.156      C309.668,1876.203,380.424,1852.211,383.566,1846.021z"></path>
				<path fill="#010101" d="M301.023,1896.637c-0.014,0-0.027,0-0.042,0c-3.302-0.111-9.757-2.055-10.554-8.602      c-0.791-6.498,4.506-10.146,7.418-11.168c0.621-0.219,1.301,0.109,1.518,0.727c0.219,0.623-0.107,1.301-0.727,1.52      c-0.281,0.1-6.6,2.434-5.846,8.633c0.749,6.152,7.967,6.498,8.273,6.51c0.656,0.025,1.17,0.578,1.146,1.234      C302.188,1896.131,301.66,1896.637,301.023,1896.637z"></path>
				<path fill="#010101" d="M319.145,1897.254c-0.016,0-0.028,0-0.043,0c-3.301-0.113-9.757-2.057-10.555-8.602      c-0.791-6.498,4.508-10.148,7.42-11.17c0.621-0.213,1.301,0.109,1.519,0.732c0.216,0.619-0.108,1.297-0.729,1.516      c-0.28,0.1-6.601,2.436-5.845,8.633c0.312,2.564,1.77,4.434,4.333,5.555c2.011,0.879,3.919,0.953,3.938,0.953      c0.656,0.025,1.172,0.576,1.148,1.234C320.311,1896.748,319.782,1897.254,319.145,1897.254z"></path>
				<path fill="#010101" d="M336.527,1897.846c-0.014,0-0.029,0-0.041-0.002c-3.303-0.113-9.758-2.055-10.556-8.602      c-0.791-6.498,4.508-10.146,7.419-11.168c0.621-0.217,1.301,0.109,1.518,0.729c0.218,0.621-0.107,1.301-0.727,1.518      c-0.282,0.102-6.601,2.436-5.846,8.635c0.748,6.148,7.967,6.498,8.273,6.508c0.656,0.027,1.17,0.578,1.146,1.234      C337.691,1897.34,337.164,1897.846,336.527,1897.846z"></path>
				<path fill="#F15A22" d="M352.881,1876.586c0,0,38.467-24.441,74.703,23.168c16.729,0.566,19.016,0.645,19.016,0.645      s-26.823-62.951-96.523-30.553c2.55-7.484,8.455-11.826,8.455-11.826l5.9-2.244c0,0-16.08-4.33-20.088,7.227      S342.084,1883.557,352.881,1876.586z"></path>
				<path fill="#010101" d="M371.559,1899.105c-1.242,0-2.574-0.07-4.211-0.16c-1.294-0.066-2.784-0.146-4.581-0.207      c-0.599-0.035-13.989-0.91-16.396-8.59c-1.354-4.313-1.037-7.92,0.939-10.723c3.631-5.146,11.5-5.504,11.834-5.516      c0.664-0.043,1.209,0.486,1.234,1.145c0.025,0.654-0.486,1.209-1.143,1.236c-0.07,0.002-7.04,0.332-9.985,4.516      c-1.521,2.16-1.726,5.064-0.608,8.631c1.917,6.117,14.111,6.914,14.234,6.922c1.785,0.061,3.29,0.141,4.596,0.209      c5.959,0.316,7.562,0.402,15.936-2.496c0.621-0.211,1.299,0.113,1.514,0.736c0.216,0.621-0.113,1.301-0.734,1.514      C377.713,1898.564,374.99,1899.105,371.559,1899.105z"></path>
				<path fill="#F15A22" d="M459.143,1914.713c-0.146,4.324-3.771,7.713-8.096,7.564l-175.18-5.957      c-4.324-0.148-7.711-3.775-7.563-8.098l0.205-6.043c0.146-4.324,3.771-7.713,8.096-7.564l175.18,5.959      c4.324,0.148,7.711,3.773,7.563,8.096L459.143,1914.713z"></path>
			</g>
			<g>
				<path fill="#F7D0C3" d="M678.868,1825.598c0,0,25.95,40.049,12.007,42.768c-13.942,2.721-147.684,28.809-165.242,32.234      c-12.139,2.369-17.184-11.406-11.275-17.893c36.528-8.584,98.461-45.893,100.131-52.627l-0.063-0.037      c0,0-105.392-325.115-123.139-535.674l128.174-20.117c10.76,100.029,0.631,187.758,20.877,256.6      C682.234,1673.324,668.039,1771.02,678.868,1825.598z"></path>
				<path fill="#F15A22" d="M546.036,1880.963c0,0,64.642-38.893,91.611-2.215c17.53-3.418,23.374-4.559,23.374-4.559      s-32.232-49.75-97.045-8.252c17.798-9.561,24.119-15.5,24.119-15.5l10.702-7.08c0,0-16.034,2.025-29.618,8.828      C556.409,1858.582,542.201,1870.346,546.036,1880.963z"></path>
				<path fill="#010101" d="M556.01,1895.889c-3.242,0.631-9.971,0.189-12.218-6.014c-2.231-6.152,2.112-10.898,4.72-12.547      c0.555-0.354,1.291-0.188,1.643,0.367c0.352,0.557,0.188,1.293-0.365,1.645c-0.248,0.156-5.888,3.852-3.758,9.727      c0.881,2.43,2.721,3.922,5.471,4.438c2.157,0.406,4.033,0.047,4.051,0.043c0.646-0.125,1.272,0.299,1.398,0.943      C557.076,1895.135,556.656,1895.762,556.01,1895.889z"></path>
				<path fill="#010101" d="M572.293,1892.711c-3.242,0.633-9.969,0.189-12.219-6.01c-2.229-6.154,2.113-10.9,4.721-12.551      c0.555-0.352,1.292-0.186,1.644,0.369c0.351,0.559,0.187,1.291-0.367,1.645c-0.247,0.154-5.886,3.852-3.757,9.727      c0.881,2.428,2.722,3.922,5.472,4.438c2.155,0.406,4.032,0.047,4.05,0.043c0.646-0.127,1.271,0.297,1.398,0.943      C573.359,1891.957,572.938,1892.586,572.293,1892.711z"></path>
				<path fill="#010101" d="M588.768,1889.496c-3.242,0.633-9.969,0.189-12.217-6.01c-2.232-6.152,2.111-10.898,4.719-12.549      c0.556-0.352,1.291-0.188,1.643,0.369c0.352,0.555,0.188,1.291-0.367,1.643c-0.246,0.156-5.885,3.854-3.756,9.725      c0.881,2.432,2.723,3.924,5.471,4.439c2.157,0.406,4.033,0.049,4.051,0.045c0.646-0.127,1.273,0.295,1.398,0.943      C589.835,1888.744,589.413,1889.371,588.768,1889.496z"></path>
				<path fill="#010101" d="M613.293,1884.805c-0.821,0.16-1.711,0.316-2.717,0.492c-1.275,0.223-2.745,0.482-4.51,0.826      c-3.242,0.631-9.969,0.189-12.217-6.012c-2.23-6.15,2.111-10.898,4.719-12.547c0.555-0.354,1.291-0.188,1.643,0.367      s0.188,1.291-0.366,1.643c-0.247,0.158-5.886,3.854-3.755,9.727c0.879,2.43,2.72,3.922,5.47,4.439      c2.155,0.404,4.032,0.047,4.052,0.043c1.781-0.35,3.266-0.605,4.553-0.834c5.877-1.031,7.459-1.305,14.968-6.014      c0.56-0.346,1.292-0.18,1.642,0.377s0.18,1.295-0.377,1.643C619.801,1883.088,617.432,1883.996,613.293,1884.805z"></path>
				<path fill="#F15A22" d="M703.569,1880.033c0.827,4.244-1.944,8.359-6.19,9.189l-172.036,33.561      c-4.248,0.828-8.362-1.947-9.19-6.189l-1.158-5.936c-0.828-4.248,1.943-8.361,6.19-9.189l172.038-33.561      c4.245-0.826,8.359,1.941,9.188,6.189L703.569,1880.033z"></path>
			</g>
			<path fill="#FDE958" d="M747.701,1373.041c12.227-251.846-65.353-463.092-68.779-472.981l-341.223-26.95     c0,0-32.142,239.974-81.264,478.115c0,0,48.016,64.488,204.572,72.041C713.305,1435.438,747.701,1373.041,747.701,1373.041z"></path>
			<g>
				<circle fill="#F15A22" cx="347.875" cy="1058.821" r="8.501"></circle>
				<circle fill="#F15A22" cx="452.507" cy="1058.821" r="8.501"></circle>
				<circle fill="#F15A22" cx="431.389" cy="1148.976" r="8.501"></circle>
				<circle fill="#F15A22" cx="323.803" cy="1197.599" r="8.501"></circle>
				<circle fill="#F15A22" cx="414.387" cy="1252.142" r="8.501"></circle>
				<circle fill="#F15A22" cx="534.983" cy="1176.354" r="8.502"></circle>
				<circle fill="#F15A22" cx="582.992" cy="1080.56" r="8.501"></circle>
				<circle fill="#F15A22" cx="670.42" cy="1033.317" r="8.501"></circle>
				<circle fill="#F15A22" cx="695.284" cy="1133.058" r="8.501"></circle>
				<circle fill="#F15A22" cx="644.763" cy="1229.186" r="8.501"></circle>
				<circle fill="#F15A22" cx="550.764" cy="1305.185" r="8.501"></circle>
				<circle fill="#F15A22" cx="452.508" cy="1376.163" r="8.501"></circle>
				<circle fill="#F15A22" cx="315.303" cy="1334.348" r="8.502"></circle>
				<circle fill="#F15A22" cx="653.264" cy="1376.163" r="8.501"></circle>
				<circle fill="#F15A22" cx="724.067" cy="1305.185" r="8.501"></circle>
			</g>
		</g>
	</g>
	<path fill="#F15A22" d="M103.64,275.244C48,330.816,6.06,539.676,43.558,614.043c22.499,42.286,236.841,17.572,236.841,17.572   s48.266,194.076,21.345,361.787c-5.221,32.527,132.978,89.113,369.894-1.912c41.352-15.887,66.667-48.01,34.492-133.113   c179.393-113.816,183.848-144.458,145.71-194.332c-17.841-23.33-84.277-93.078-170.146-161.359   c-103.784-82.527-225.37-57.942-225.37-57.942l-150.939,24.362l-166.511,58.52c0,0,35.821-94.948,30.976-178.472L103.64,275.244z    M654.166,746.313l-44.713-113.422l98.467,80.479L654.166,746.313z"></path>
	<path fill="#F7D0C3" d="M340.043,437.894c0,0,4.932,16.286,6.909,24.086c-12.931,2.517-9.129,2.225-24.992,4.61   c1.896,16.793,13.931,68.733,90.677,60.068c67.545-7.626,75.813-63.948,73.444-84.919c0,0-12.617,0.102-29.759,3.005   c-11.802-34.524-22.881-72.532-22.881-72.532S347.258,406.767,340.043,437.894z"></path>
	<g>
		<g>
			<g>
				<g>
					<path fill="#F7D0C3" d="M435.91,247.783c0,0,37.658-21.87,57.463,14.495c19.805,36.367-18.407,68.921-43.981,71.963       c0,0,17.303,100.872-125.758,118.799c-136.953,17.161-134.423-185.636-120.856-214.684c0,0,24.097-70.401,141.042-86.442       C460.765,135.876,435.91,247.783,435.91,247.783z"></path>
					<path fill="#010101" d="M349.683,450.013c-2.488,0.502-3.922,0.712-3.986,0.723c-0.725,0.101-1.395-0.403-1.497-1.126       c-0.103-0.726,0.416-1.393,1.125-1.499c0.273-0.042,27.81-4.096,54.106-20.151c15.38-9.388,27.34-20.992,35.546-34.484       c10.247-16.852,14.652-36.749,13.095-59.141l-0.084-1.202l1.188-0.197c0.361-0.06,36.713-6.45,46.65-38.835       c0.215-0.701,0.957-1.096,1.655-0.879c0.7,0.214,1.095,0.956,0.879,1.655c-9.38,30.571-41.038,39.005-47.571,40.435       c1.37,22.496-3.194,42.537-13.573,59.583c-8.441,13.861-20.712,25.763-36.475,35.373       C379.933,442.952,358.377,448.26,349.683,450.013z"></path>
					<path fill="#010101" d="M498.589,277.664c-0.002,0-0.003,0-0.003,0c-0.719,0.143-1.415-0.324-1.559-1.042       c-0.043-0.215-4.473-21.671-21.106-30.193c-10.582-5.419-23.856-4.559-39.459,2.559c-0.669,0.301-1.451,0.01-1.755-0.655       c-0.305-0.666-0.012-1.454,0.654-1.755c16.386-7.475,30.443-8.317,41.783-2.5c17.781,9.123,22.3,31.098,22.481,32.029       C499.77,276.824,499.305,277.52,498.589,277.664z"></path>
					<path fill="#010101" d="M237.101,493.103c0,0-51.619,17.492-49.965-162.761c0.838-91.187-19.569-158.118,47.999-200.27       c43.255-54.506,182.89-72.445,235.578,26.894c66.326,125.052,155.937,233.137,99.074,292.952       c-54.529-16.47-120.55-4.031-120.55-4.031s-5.212-21.884-13.694-48.349c14.11-31.26,15.246-62.227,15.246-62.227       s49.318-14.475,39.649-59.34c-9.271-43.015-53.977-26.983-53.977-26.983s-137.875,0.473-190.355-42.561       c-16.583,39.533-49.402,76.583-49.402,76.583s-1.419,91.657,38.336,137.286c0,0,30.804,46.392,109.735,29.282l2.177,12.401       C346.952,461.98,303.524,469.334,237.101,493.103z"></path>
				</g>
				
					<ellipse transform="matrix(0.9802 -0.1978 0.1978 0.9802 -68.1475 51.266)" fill="#F494B0" cx="222.596" cy="366.822" rx="11.745" ry="5.067"></ellipse>
				
					<ellipse transform="matrix(0.9803 -0.1977 0.1977 0.9803 -58.7066 81.8569)" fill="#F494B0" cx="380.621" cy="334.956" rx="11.58" ry="4.995"></ellipse>
			</g>
			<path fill="#010101" d="M454.378,311.498c-3.647,1.002-7.077,1.214-7.325,1.229c-0.619,0.035-1.148-0.438-1.184-1.055     c-0.036-0.619,0.435-1.151,1.055-1.185c0.1-0.004,9.809-0.612,13.17-4.395c0.765-0.858,1.104-1.792,1.041-2.855     c-0.148-2.47-2.077-5.374-4.119-8.448c-3.182-4.786-6.787-10.209-5.075-16.119c1.524-5.268,7.078-9.98,16.979-14.407     c0.565-0.255,1.23,0.001,1.483,0.566s0,1.229-0.565,1.481c-9.261,4.143-14.411,8.388-15.741,12.983     c-1.422,4.91,1.734,9.661,4.788,14.255c2.216,3.333,4.308,6.482,4.49,9.558c0.1,1.665-0.439,3.17-1.604,4.479     C460.05,309.519,457.149,310.736,454.378,311.498z"></path>
		</g>
		<g>
			<path fill="#010101" d="M234.761,289.918c7.899,1.734,16.01-1.313,17.279-5.506c1.717-5.667-6.293-1.042-13.53-2.387     c-10.593-1.97-12.586-6.16-15.306-5.501C219.597,277.396,223.684,287.486,234.761,289.918z"></path>
			<path fill="#010101" d="M334.375,263.605c-7.886,4.463-17.574,3.874-20.315-0.194c-3.708-5.506,6.395-3.196,13.702-7.022     c10.689-5.605,11.442-10.747,14.568-10.94C346.481,245.195,345.438,257.348,334.375,263.605z"></path>
			<path fill="#010101" d="M293.587,316.278c-0.064,3.609-3.297,30.22-2.688,35.653c0.609,5.429,9.169,5.325,12.39,6.017     c3.226,0.695-4.429,3.99-14.054,1.29c-8.036-3.451-2.436-21.37,1.285-42.637C291.644,313.517,293.633,313.65,293.587,316.278z"></path>
			<path fill="#010101" d="M234.747,323.969c0,0,9.974-3.749,23.075,0.563c4.418,0.598-3.739-15.631-24.288-5.134     C229.528,322.282,229.238,325.272,234.747,323.969z"></path>
			<path fill="#010101" d="M351.73,296.015c0,0-10.652,0.357-21.102,9.362c-3.854,2.24-2.533-15.874,20.471-14.049     C355.905,292.46,357.317,295.108,351.73,296.015z"></path>
			<path fill="#791214" d="M281.227,384.494c7.057,3.172,13.744,3.997,26.631-0.118c13.838-4.418,28.132-18.62,38.039-11.464     c6.81,4.918,14.639,24.136,9.315,38.483c-2.418,6.521-11.228,0.498-20.405,3.207c-5.794,1.708-7.852,12.663-13.324,10.625     C299.192,416.926,281.227,384.494,281.227,384.494L281.227,384.494z"></path>
			<path fill="#E7549E" d="M356.502,394.866c0.839,5.543,0.629,11.354-1.29,16.53c-2.417,6.521-11.228,0.498-20.405,3.207     c-5.793,1.708-7.852,12.663-13.324,10.625c-3.591-1.338-7.068-3.301-10.377-5.653     C315.002,398.037,343.446,389.398,356.502,394.866z"></path>
			<path fill="#FFFFFF" d="M281.227,384.495c7.058,3.172,13.744,3.996,26.631-0.119c13.838-4.418,28.132-18.618,38.039-11.464     c0.456,0.329,0.916,0.723,1.377,1.175c-8.371,6.752-44.636,26.939-59.418,20.778     C283.663,388.892,281.227,384.495,281.227,384.495L281.227,384.495z"></path>
		</g>
	</g>
	<path fill="#FDE958" d="M616.466,890.993c0,0-12.042-31.758-15.071-38.316c-13.184,3.739-19.51,14.66-26.399,14.559   C585.212,883.521,604.252,891.617,616.466,890.993z"></path>
	<path fill="#FFFFFF" d="M564.418,800.948c-0.651,0-1.284-0.339-1.629-0.945c-0.512-0.898-0.197-2.042,0.7-2.554   c24.223-13.79,88.657-53.329,89.306-53.727c0.879-0.539,2.034-0.267,2.574,0.616c0.541,0.881,0.266,2.034-0.616,2.575   c-0.648,0.397-65.136,39.969-89.41,53.789C565.05,800.869,564.732,800.948,564.418,800.948z"></path>
	<path fill="#FFFFFF" d="M638.334,888.653c-4.248,0-8.173-0.521-11.766-1.564c-0.994-0.288-1.564-1.327-1.275-2.32   c0.287-0.992,1.324-1.565,2.319-1.275c29.561,8.584,77.459-25.105,77.939-25.447c0.843-0.598,2.011-0.4,2.61,0.442   s0.401,2.012-0.441,2.61c-0.123,0.087-12.511,8.848-28.515,16.379C663.398,884.916,649.711,888.653,638.334,888.653z"></path>
	<path fill="#FFFFFF" d="M702.883,717.374l2.423-5.496c0.382-0.863,9.78-21.153,49.207-22.58c1.032-0.038,1.901,0.77,1.938,1.803   s-0.77,1.901-1.803,1.938c-19.34,0.701-30.806,6.218-37.02,10.724c-1.932,1.4-3.489,2.793-4.727,4.065   c11.043-4.197,34.783-9.561,67.23,3.355c0.96,0.382,1.429,1.471,1.046,2.432c-0.382,0.96-1.47,1.429-2.431,1.047   c-42.878-17.067-70.473-0.604-70.746-0.436L702.883,717.374z"></path>
	<path fill="#FFFFFF" d="M282.741,642.842l-5.154-10.258c-0.174-0.347-17.44-35.047-19.042-67.044   c-0.051-1.032,0.744-1.911,1.776-1.963c1.049-0.057,1.912,0.743,1.964,1.776c1.006,20.101,8.387,41.37,13.555,54.049   c-2.733-24.083-7.49-77.256-0.978-111.409c0.194-1.016,1.166-1.681,2.19-1.488c1.015,0.193,1.682,1.174,1.488,2.189   c-8.477,44.445,2.461,122.006,2.572,122.784L282.741,642.842z"></path>
	<path fill="#FDE958" d="M322.035,467.323c0,0,5.281,67.712,83.166,58.918c72.809-8.22,82.512-61.938,80.88-84.502l16.87-0.351   c-0.661,23.133-7.082,87.058-98.957,97.431c-87.994,9.935-98.188-67.301-98.188-67.301L322.035,467.323z"></path>
	<path fill="#FFFFFF" d="M391.448,541.202c-14.763,0-28.034-2.514-39.609-7.519c-12.595-5.446-23.198-13.824-31.517-24.901   c-14.123-18.809-16.695-35.813-16.798-36.648l4.085-1.082c0.024,0.196,2.221,17.594,15.8,35.604   c7.929,10.516,18.024,18.466,30.008,23.629c15.044,6.481,33.154,8.585,53.829,6.25c38.271-4.32,65.47-20.034,80.842-46.703   c8.04-13.949,12.654-31.167,12.992-48.48l3.743,0.073c-0.247,12.687-2.789,31.709-13.492,50.276   c-15.999,27.757-44.147,44.093-83.665,48.555C402.081,540.887,396.67,541.202,391.448,541.202z"></path>
	<path fill="#FDE958" d="M464.828,615.083l107.715-19.389l20.841,91.431c0,0-10.47,19.453-53.357,29.84   c-43.095-3.236-53.601-16.917-53.601-16.917L464.828,615.083z"></path>
	
		<rect x="522.059" y="571.42" transform="matrix(0.1789 0.9839 -0.9839 0.1789 1045.8906 -1.6446)" fill="#FFFFFF" width="3.744" height="108.775"></rect>
	<g>
		<path fill="#F7D0C3" d="M177.297,97.266c10.021,5.878,7.479,21.477,3.639,33.424c17.29-16.545,45.723-26.39,96.003-18.024    c17.108,3.483,18.447,9.08,17.291,12.553c15.569,4.254,3.441,16.599-8.294,20.064c20.763,4.065,17.873,9.853,10.945,14.289    c-6.929,4.434-49.975,10.447-58.883,34.314c-38.711,103.726-84.529,124.011-84.529,124.011s-30.992-24.173-31.802-63.791    c0,0,15.606-17.026,16.043-24.54C141.604,162.478,148.287,113.281,177.297,97.266z"></path>
		<g>
			<path fill="#010101" d="M214.203,182.616c-0.231-0.004-0.464-0.079-0.661-0.23c-0.495-0.375-0.589-1.081-0.213-1.574     c25.339-33.238,72.067-36.618,72.535-36.648c0.623-0.043,1.152,0.43,1.193,1.049c0.039,0.619-0.43,1.153-1.049,1.193     c-0.459,0.03-46.185,3.357-70.894,35.769C214.891,182.469,214.548,182.622,214.203,182.616z"></path>
			<path fill="#010101" d="M200.681,165.76c-0.246-0.004-0.492-0.088-0.696-0.257c-0.478-0.396-0.546-1.104-0.15-1.582     c17.777-21.507,42.508-31.189,60.125-35.524c19.058-4.69,34.156-4.303,34.303-4.299c0.621,0.018,1.108,0.535,1.09,1.155     c-0.018,0.616-0.527,1.101-1.141,1.09c-0.016,0-0.039-0.001-0.12-0.002c-2.835-0.048-59.913-0.443-92.525,39.012     C201.34,165.626,201.011,165.765,200.681,165.76z"></path>
			<path fill="#010101" d="M187.182,147.961c-0.228-0.004-0.456-0.076-0.652-0.223c-0.497-0.372-0.6-1.075-0.228-1.573     c22.524-30.179,70.767-35.754,71.25-35.807c0.613-0.063,1.171,0.379,1.239,0.995c0.066,0.617-0.379,1.172-0.996,1.239     c-0.475,0.052-47.758,5.529-69.693,34.917C187.877,147.811,187.53,147.967,187.182,147.961z"></path>
		</g>
	</g>
	<g>
		<path fill="#FDE958" d="M181.519,325.992c0,0-13.128-9.151-18.21-14.286c8.058-6.793,13.901-12.635,21.395-20.511    C187.201,309.453,186.384,314.771,181.519,325.992z"></path>
		<g>
			<path fill="#FFFFFF" d="M120.691,251.794c0.874,2.005,14.51,39.721,60.827,74.197l-11.671,23.162     c0,0-50.316-16.951-64.626-72.909L120.691,251.794z"></path>
			<path fill="#E7549E" d="M170.267,350.978c-0.327,0.075-0.679,0.063-1.017-0.051c-0.525-0.177-13.049-4.47-27.502-15.769     c-13.34-10.428-30.817-29.034-38.34-58.45c-0.128-0.5-0.043-1.029,0.231-1.465l15.468-24.45c0.371-0.586,1.037-0.92,1.728-0.865     c0.69,0.053,1.295,0.483,1.572,1.119c0.042,0.098,0.112,0.271,0.213,0.519c3.79,9.448,19.322,42.633,60.016,72.924     c0.73,0.543,0.964,1.532,0.554,2.344l-11.67,23.162C171.26,350.509,170.793,350.857,170.267,350.978z M107.237,276.559     c7.351,27.884,23.982,45.591,36.702,55.56c11.121,8.718,21.263,13.203,24.994,14.688l10.207-20.257     c-37.172-28.077-53.385-58.478-58.785-70.723L107.237,276.559z"></path>
		</g>
	</g>
	<g>
		<g>
			<path fill="#F7D0C3" d="M594.719,872.306c-24.692,68.833-130.945,75.116-135.01,56.527c-11.871,1.628-31.256-2.484-25.197-13.397     c-17.29-1.15-24.719-11.213-18.118-18.165c-11.984-3.747-12.59-21.956,3.218-20.603c69.504-10.076,85.073-37.874,81.396-49.972     c-34.895-12.435-39.8-32.339-36.521-37.829c3.276-5.489,27.593-2.525,78.925,11.083c0,0,10.877,2.884,23.684-0.85     c20.186,26.317,34.299,54.778,34.299,54.778L594.719,872.306z"></path>
		</g>
		<path fill="#010101" d="M460.536,929.964c-0.537,0-0.83-0.007-0.86-0.009c-0.619-0.018-1.107-0.535-1.089-1.154    s0.525-1.128,1.154-1.09c0.333,0.009,33.698,0.761,72.263-16.045c0.568-0.248,1.23,0.012,1.479,0.581    c0.248,0.568-0.012,1.23-0.58,1.479C497.316,929.234,466.056,929.964,460.536,929.964z"></path>
		<path fill="#010101" d="M434.512,916.559c-0.589,0-1.084-0.458-1.121-1.054c-0.038-0.619,0.433-1.152,1.052-1.19    c0.362-0.023,36.815-2.461,81.523-19.849c0.577-0.224,1.229,0.062,1.455,0.64c0.225,0.578-0.063,1.229-0.64,1.455    c-45.055,17.521-81.834,19.973-82.199,19.996C434.559,916.558,434.535,916.559,434.512,916.559z"></path>
		<path fill="#010101" d="M416.394,898.394c-0.614,0-1.115-0.494-1.123-1.108c-0.008-0.621,0.488-1.13,1.108-1.139    c39.007-0.499,82.093-21.067,82.523-21.275c0.558-0.271,1.23-0.035,1.499,0.524c0.271,0.559,0.035,1.229-0.523,1.499    c-0.435,0.21-43.958,20.993-83.47,21.499C416.403,898.394,416.398,898.394,416.394,898.394z"></path>
	</g>
	<g>
		<path fill="#FFFFFF" d="M564.416,799.076c1.57,1.521,35.992,36.456,52.05,91.917l21.907-11.757c0,0-4.885-59.959-52.279-92.972    L564.416,799.076z"></path>
		<path fill="#E7549E" d="M616.466,892.865c-0.246,0-0.493-0.049-0.726-0.146c-0.521-0.22-0.915-0.662-1.072-1.205    c-16.113-55.653-51.204-90.754-51.555-91.093c-0.42-0.405-0.625-0.984-0.557-1.564c0.069-0.58,0.404-1.095,0.906-1.392    l21.678-12.812c0.631-0.373,1.422-0.343,2.022,0.075c24.879,17.329,37.983,42.056,44.597,59.746    c7.154,19.141,8.428,33.987,8.479,34.609c0.06,0.742-0.325,1.449-0.98,1.802l-21.907,11.757    C617.076,892.79,616.771,892.865,616.466,892.865z M567.399,799.487c7.197,7.73,35.655,40.458,50.21,88.768l18.77-10.073    c-0.457-3.912-2.314-16.886-8.167-32.505c-6.341-16.922-18.792-40.47-42.208-57.185L567.399,799.487z"></path>
	</g>
	<path fill="#F15A22" d="M406.033,3.261c0.499-10.028-2.412,39.332-8.486,50.367c-6.577,11.944-16.521-4.474-23.394-9.598   c-6.874-5.121-9.022,13.418-7.934,34.974c-1.523,13.286-18.644-35.832-6.95-55.844c11.69-20.01,22.376,10.896,27.891,10.885   C392.677,34.034,403.426-12.508,406.033,3.261z"></path>
	<path fill="#F15A22" d="M510.034,50.676c0,0-16.563,34.722-27.233,43.212c-10.67,8.49-13.521-10.494-17.893-17.87   c-4.369-7.371-13.493,8.906-20.791,29.22c-6.523,11.674-3.402-40.246,15.096-54.212c18.498-13.962,16.454,18.676,21.547,20.789   C485.854,73.928,513.703,35.121,510.034,50.676z"></path>
	<path fill="#F15A22" d="M572.486,145.13c0,0-30.436,23.529-43.787,26.302c-13.351,2.771-7.342-15.462-7.917-24.014   c-0.58-8.553-16.062,1.868-31.729,16.712c-11.085,7.481,15.1-37.462,37.906-41.591c22.805-4.128,6.273,24.087,9.867,28.27   S582.77,132.896,572.486,145.13z"></path>
	<path fill="#FFFFFF" d="M119.745,571.917c-0.313,0-0.632-0.079-0.924-0.245c-0.898-0.511-1.213-1.653-0.702-2.553   c12.672-22.294,21.802-43.042,21.893-43.249c0.357-0.818,1.247-1.268,2.114-1.077c0.872,0.191,1.487,0.97,1.472,1.862   c-0.002,0.153-0.303,15.522-2.878,31.401c-0.165,1.021-1.122,1.714-2.147,1.548c-1.021-0.166-1.714-1.127-1.549-2.147   c1.27-7.828,1.977-15.533,2.367-21.287c-3.89,8.219-10.304,21.229-18.016,34.798C121.029,571.576,120.396,571.917,119.745,571.917z   "></path>
</g>
</svg>