<svg xmlns="http://www.w3.org/2000/svg" xmlns:xlink="http://www.w3.org/1999/xlink" id="Layer_1" x="0px" y="0px" width="480px" height="475px" viewBox="0 0 480 475" xml:space="preserve">
<metadata>

                                                                                                    
                                                                                                    
                                                                                                    
                                                                                                    
                                                                                                    
                                                                                                    
                                                                                                    
                                                                                                    
                                                                                                    
                                                                                                    
                                                                                                    
                                                                                                    
                                                                                                    
                                                                                                    
                                                                                                    
                                                                                                    
                                                                                                    
                                                                                                    
                                                                                                    
                                                                                                    
                           

	</metadata>
<g>
	<g>
		<path fill="#E4185A" d="M131.62,130.03H102.77l2.44-4.9c6.03-12.109,6.03-26.385,0-38.494l-2.44-4.899h28.851l-2.44,4.899    c-6.031,12.109-6.031,26.385,0,38.494L131.62,130.03z"></path>
		<path fill="#E4185A" d="M78.703,140.093l-20.401,20.594l-1.707-5.206c-4.218-12.868-14.218-22.962-26.964-27.22l-5.157-1.723    l20.4-20.595l1.707,5.206c4.218,12.868,14.217,22.962,26.963,27.22L78.703,140.093z"></path>
		<path fill="#E4185A" d="M48.333,184.982v29.125l-4.854-2.463c-11.996-6.088-26.137-6.088-38.132,0l-4.854,2.463v-29.125    l4.854,2.463c11.995,6.088,26.137,6.088,38.132,0L48.333,184.982z"></path>
		<path fill="#E4185A" d="M58.302,238.402l20.401,20.594l-5.158,1.724c-12.747,4.258-22.746,14.353-26.963,27.22l-1.707,5.206    l-20.4-20.595l5.157-1.723c12.746-4.258,22.746-14.352,26.964-27.22L58.302,238.402z"></path>
		<path fill="#E4185A" d="M102.77,269.06h28.851l-2.44,4.9c-6.031,12.109-6.031,26.385,0,38.494l2.44,4.899H102.77l2.44-4.899    c6.03-12.109,6.03-26.385,0-38.494L102.77,269.06z"></path>
		<path fill="#E4185A" d="M155.687,258.996l20.401-20.594l1.707,5.206c4.218,12.868,14.217,22.962,26.964,27.22l5.157,1.723    l-20.4,20.595l-1.707-5.206c-4.218-12.867-14.217-22.962-26.963-27.22L155.687,258.996z"></path>
		<path fill="#E4185A" d="M186.056,214.107v-29.125l4.854,2.463c11.996,6.088,26.137,6.088,38.132,0l4.854-2.463v29.125    l-4.854-2.463c-11.996-6.088-26.137-6.088-38.132,0L186.056,214.107z"></path>
		<path fill="#E4185A" d="M176.087,160.688l-20.401-20.594l5.158-1.723c12.746-4.258,22.746-14.352,26.963-27.22l1.707-5.206    l20.4,20.595l-5.157,1.723c-12.747,4.258-22.746,14.352-26.964,27.22L176.087,160.688z"></path>
		<linearGradient id="SVGID_1_" gradientUnits="userSpaceOnUse" x1="141.3936" y1="249.6406" x2="99.2512" y2="162.3987">
			<stop offset="0" style="stop-color:#F8991D"></stop>
			<stop offset="1" style="stop-color:#FED900"></stop>
		</linearGradient>
		<ellipse fill="url(#SVGID_1_)" cx="117.195" cy="199.545" rx="70.343" ry="71.012"></ellipse>
		<ellipse fill="#F47733" cx="117.195" cy="199.545" rx="14.425" ry="14.563"></ellipse>
		<g>
			<path fill="#EF4444" d="M94.699,156.319c2.715,2.546,0.522,9.387-4.9,15.281c-5.421,5.893-12.018,8.606-14.734,6.06     c-2.715-2.546-0.522-9.387,4.899-15.281C85.386,156.486,91.983,153.772,94.699,156.319z"></path>
			<path fill="#EF4444" d="M92.688,155.413l-18.742,19.838l-0.081-2.336c-2.018-10.107-8.8-17.008-18.438-19.624     c-1.133-0.308-2.301-0.48-3.474-0.53l18.398-19.566l0.14,1.202c0.044,0.378,0.102,0.757,0.185,1.129     c2.242,10.124,11.54,19.688,21.063,19.842L92.688,155.413z"></path>
			<path fill="#F47733" d="M69.203,130.477c2.716,2.546,0.522,9.387-4.899,15.28c-5.422,5.893-12.019,8.606-14.734,6.061     c-2.716-2.546-0.522-9.388,4.899-15.281C59.891,130.644,66.487,127.93,69.203,130.477z"></path>
		</g>
		<g>
			<path fill="#EF4444" d="M141.011,244.127c-2.715-2.546-0.522-9.388,4.899-15.28c5.422-5.894,12.019-8.606,14.734-6.061     c2.715,2.546,0.522,9.388-4.899,15.28C150.324,243.96,143.727,246.674,141.011,244.127z"></path>
			<path fill="#EF4444" d="M143.021,245.033l18.742-19.838l0.081,2.336c2.019,10.106,8.8,17.008,18.438,19.623     c1.133,0.309,2.301,0.481,3.474,0.53l-18.398,19.566l-0.14-1.201c-0.044-0.379-0.102-0.757-0.185-1.129     c-2.242-10.124-11.54-19.688-21.063-19.842L143.021,245.033z"></path>
			<path fill="#F47733" d="M166.507,269.97c-2.716-2.546-0.522-9.388,4.899-15.28c5.422-5.894,12.019-8.606,14.734-6.061     c2.716,2.546,0.522,9.388-4.899,15.28C175.819,269.803,169.223,272.516,166.507,269.97z"></path>
		</g>
		<g>
			<g>
				<path fill="#EF4444" d="M160.686,176.169c-2.522,2.741-9.299,0.527-15.137-4.946c-5.837-5.473-8.525-12.132-6.003-14.874      c2.522-2.741,9.299-0.527,15.137,4.946C160.521,166.768,163.208,173.427,160.686,176.169z"></path>
				<path fill="#EF4444" d="M161.583,174.14l-19.651-18.92l2.313-0.082c10.012-2.037,16.849-8.883,19.439-18.613      c0.305-1.144,0.477-2.323,0.525-3.506l19.382,18.572l-1.19,0.142c-0.375,0.044-0.75,0.103-1.118,0.186      c-10.029,2.263-19.504,11.649-19.655,21.263L161.583,174.14z"></path>
				<path fill="#F47733" d="M186.286,150.431c-2.522,2.742-9.299,0.527-15.137-4.946c-5.837-5.474-8.525-12.133-6.003-14.874      c2.522-2.741,9.299-0.527,15.137,4.946C186.12,141.03,188.808,147.689,186.286,150.431z"></path>
			</g>
			<g>
				<path fill="#EF4444" d="M73.704,222.921c2.522-2.741,9.299-0.526,15.137,4.946c5.838,5.473,8.525,12.133,6.003,14.874      s-9.299,0.527-15.137-4.946C73.869,232.322,71.182,225.662,73.704,222.921z"></path>
				<path fill="#EF4444" d="M72.806,224.95l19.651,18.92l-2.314,0.082c-10.012,2.037-16.848,8.883-19.439,18.613      c-0.305,1.144-0.476,2.323-0.525,3.507l-19.382-18.573l1.19-0.142c0.375-0.044,0.75-0.103,1.118-0.186      c10.029-2.264,19.503-11.649,19.655-21.263L72.806,224.95z"></path>
				<path fill="#F47733" d="M48.104,248.658c2.522-2.741,9.299-0.526,15.137,4.946c5.838,5.474,8.525,12.133,6.003,14.874      s-9.299,0.527-15.137-4.946C48.27,258.06,45.582,251.4,48.104,248.658z"></path>
			</g>
		</g>
	</g>
	<path fill="#E7E7F1" d="M477.788,350.857c-0.882,0.912-1.998,1.53-3.202,1.809c-0.396-0.518-0.848-0.793-1.19-0.658   c-0.12,0.047-0.213,0.144-0.284,0.271c-0.087,0.152-0.188,0.301-0.305,0.437c-0.029,0.034-0.062,0.061-0.091,0.093   c-0.141-0.008-0.28-0.011-0.421-0.029l-0.822-0.107c-0.675-1.117-1.567-2.134-2.651-2.965c0.003,0.001-0.011-0.828-0.011-0.828   c-0.035-2.049,0.901-3.992,2.525-5.242l0.657-0.506l-3.967-1.911l0.014,0.829c0.035,2.049-0.901,3.992-2.525,5.242l-0.657,0.506   c-1.322-0.328-2.674-0.393-3.983-0.219c0.015-0.005-0.581-0.581-0.581-0.581c-0.094-0.091-0.176-0.19-0.263-0.286   c0.015-0.098,0.032-0.195,0.055-0.291c0.013-0.057,0.03-0.111,0.049-0.166l0.06-0.173c0.062-0.158,0.073-0.312,0.021-0.446   c-0.13-0.332-0.609-0.48-1.229-0.435c-0.557-1.131-0.78-2.414-0.614-3.696l0.107-0.821l-4.156,1.454l0.597,0.576   c0.948,0.916,1.576,2.09,1.836,3.35c-0.507,0.394-0.773,0.84-0.641,1.178c0.047,0.12,0.145,0.213,0.272,0.285   c0.151,0.086,0.301,0.188,0.437,0.305c0.015,0.012,0.026,0.026,0.04,0.039c-0.008,0.112-0.009,0.224-0.023,0.336l-0.106,0.822   c-1.118,0.675-2.135,1.566-2.966,2.65c0.001-0.002-0.828,0.012-0.828,0.012c-2.049,0.035-3.992-0.902-5.242-2.525l-0.506-0.657   l-1.911,3.967l0.829-0.014c2.049-0.035,3.993,0.901,5.242,2.525l0.506,0.657c-0.328,1.322-0.393,2.674-0.218,3.982   c-0.005-0.014-0.582,0.582-0.582,0.582c-0.109,0.113-0.229,0.213-0.345,0.317c-0.125-0.016-0.248-0.035-0.368-0.063   c-0.057-0.013-0.111-0.029-0.166-0.049l-0.173-0.06c-0.159-0.062-0.312-0.073-0.446-0.021c-0.334,0.131-0.482,0.617-0.434,1.243   c-1.098,0.51-2.329,0.714-3.561,0.554l-0.822-0.107l1.453,4.156l0.576-0.597c0.882-0.911,1.998-1.529,3.202-1.808   c0.396,0.518,0.848,0.793,1.19,0.658c0.12-0.047,0.213-0.145,0.284-0.271c0.087-0.152,0.188-0.301,0.305-0.438   c0.029-0.033,0.062-0.061,0.091-0.092c0.141,0.009,0.28,0.011,0.421,0.029l0.822,0.107c0.675,1.117,1.567,2.134,2.651,2.965   c-0.003-0.001,0.011,0.828,0.011,0.828c0.035,2.049-0.901,3.992-2.525,5.242l-0.656,0.506l3.966,1.91l-0.014-0.828   c-0.035-2.049,0.901-3.993,2.525-5.242l0.657-0.506c1.322,0.328,2.674,0.393,3.983,0.218c-0.015,0.005,0.581,0.581,0.581,0.581   c0.133,0.129,0.252,0.268,0.372,0.405c-0.016,0.15-0.038,0.3-0.071,0.444c-0.014,0.057-0.03,0.112-0.049,0.166l-0.06,0.174   c-0.062,0.158-0.073,0.311-0.021,0.445c0.132,0.336,0.622,0.483,1.252,0.432c0.466,1.064,0.651,2.245,0.498,3.427l-0.107,0.822   l4.156-1.454l-0.597-0.576c-0.875-0.846-1.475-1.911-1.768-3.061c0.521-0.397,0.8-0.852,0.665-1.195   c-0.047-0.12-0.145-0.213-0.272-0.284c-0.151-0.087-0.301-0.188-0.437-0.305c-0.052-0.045-0.096-0.095-0.146-0.142   c0.009-0.169,0.015-0.337,0.036-0.506l0.107-0.822c1.117-0.675,2.134-1.567,2.965-2.651c-0.001,0.003,0.828-0.011,0.828-0.011   c2.049-0.035,3.992,0.901,5.242,2.525l0.506,0.656l1.911-3.966l-0.829,0.014c-2.049,0.034-3.993-0.901-5.242-2.525l-0.506-0.657   c0.328-1.322,0.393-2.674,0.218-3.983c0.006,0.015,0.582-0.581,0.582-0.581c0.109-0.113,0.229-0.214,0.345-0.317   c0.125,0.016,0.248,0.035,0.368,0.063c0.057,0.013,0.111,0.029,0.166,0.049l0.173,0.059c0.159,0.062,0.312,0.074,0.446,0.021   c0.335-0.131,0.482-0.616,0.434-1.242c1.098-0.51,2.329-0.714,3.561-0.554l0.822,0.107l-1.453-4.156L477.788,350.857z"></path>
	<path fill="#E7E7F1" d="M62.359,374.576c-0.881,0.912-1.998,1.53-3.202,1.809c-0.397-0.518-0.848-0.793-1.191-0.659   c-0.12,0.047-0.212,0.145-0.284,0.272c-0.086,0.151-0.188,0.301-0.305,0.437c-0.029,0.033-0.061,0.061-0.09,0.093   c-0.141-0.009-0.281-0.012-0.421-0.029l-0.822-0.107c-0.675-1.118-1.567-2.135-2.651-2.965c0.003,0.001-0.011-0.828-0.011-0.828   c-0.035-2.049,0.902-3.993,2.525-5.242l0.657-0.506l-3.967-1.911l0.014,0.829c0.035,2.049-0.902,3.992-2.525,5.242l-0.657,0.506   c-1.323-0.328-2.674-0.393-3.983-0.219c0.015-0.005-0.582-0.581-0.582-0.581c-0.094-0.091-0.175-0.19-0.263-0.286   c0.014-0.099,0.033-0.195,0.055-0.291c0.013-0.057,0.03-0.111,0.048-0.166l0.06-0.174c0.061-0.158,0.073-0.311,0.02-0.445   c-0.13-0.332-0.609-0.48-1.229-0.436c-0.557-1.131-0.78-2.413-0.613-3.695l0.107-0.822l-4.156,1.454l0.596,0.576   c0.949,0.917,1.577,2.09,1.836,3.351c-0.507,0.394-0.773,0.839-0.641,1.178c0.047,0.12,0.144,0.213,0.272,0.284   c0.152,0.087,0.301,0.188,0.437,0.305c0.015,0.013,0.026,0.026,0.041,0.04c-0.008,0.111-0.009,0.224-0.023,0.336l-0.107,0.822   c-1.118,0.674-2.135,1.566-2.966,2.65c0.001-0.002-0.828,0.012-0.828,0.012c-2.049,0.035-3.993-0.902-5.243-2.525l-0.505-0.657   l-1.911,3.967l0.829-0.015c2.048-0.034,3.993,0.902,5.242,2.525l0.506,0.657c-0.328,1.323-0.393,2.674-0.218,3.983   c-0.005-0.014-0.582,0.582-0.582,0.582c-0.109,0.113-0.229,0.213-0.345,0.317c-0.125-0.016-0.248-0.035-0.368-0.063   c-0.056-0.014-0.111-0.03-0.166-0.049l-0.173-0.06c-0.159-0.062-0.311-0.073-0.446-0.021c-0.334,0.131-0.482,0.617-0.433,1.243   c-1.098,0.509-2.329,0.713-3.561,0.553l-0.822-0.106l1.454,4.155l0.576-0.596c0.881-0.911,1.998-1.53,3.202-1.808   c0.396,0.518,0.848,0.793,1.19,0.658c0.12-0.047,0.212-0.145,0.284-0.272c0.087-0.151,0.188-0.301,0.305-0.437   c0.029-0.033,0.061-0.061,0.091-0.093c0.14,0.009,0.28,0.012,0.421,0.03l0.822,0.106c0.675,1.118,1.567,2.135,2.651,2.966   c-0.002-0.001,0.011,0.828,0.011,0.828c0.035,2.048-0.902,3.992-2.525,5.242l-0.657,0.506l3.967,1.91l-0.014-0.828   c-0.035-2.049,0.902-3.993,2.525-5.243l0.657-0.506c1.323,0.329,2.674,0.394,3.983,0.219c-0.015,0.005,0.582,0.581,0.582,0.581   c0.133,0.129,0.252,0.268,0.372,0.404c-0.016,0.151-0.038,0.301-0.072,0.445c-0.013,0.057-0.03,0.111-0.049,0.166l-0.06,0.173   c-0.061,0.159-0.073,0.312-0.021,0.446c0.132,0.336,0.622,0.482,1.252,0.432c0.465,1.064,0.651,2.244,0.498,3.427l-0.107,0.822   l4.156-1.454l-0.596-0.576c-0.875-0.846-1.475-1.911-1.768-3.061c0.521-0.398,0.799-0.852,0.665-1.195   c-0.047-0.12-0.144-0.213-0.272-0.284c-0.152-0.087-0.301-0.188-0.437-0.305c-0.052-0.045-0.096-0.095-0.146-0.142   c0.009-0.169,0.014-0.338,0.036-0.506l0.106-0.822c1.118-0.675,2.135-1.567,2.966-2.651c-0.001,0.003,0.828-0.011,0.828-0.011   c2.049-0.035,3.993,0.901,5.243,2.525l0.506,0.656l1.911-3.967l-0.829,0.015c-2.048,0.034-3.993-0.902-5.242-2.525l-0.506-0.657   c0.328-1.323,0.393-2.674,0.218-3.983c0.005,0.015,0.582-0.581,0.582-0.581c0.109-0.113,0.229-0.214,0.345-0.318   c0.125,0.016,0.248,0.035,0.368,0.063c0.056,0.014,0.111,0.03,0.166,0.049l0.173,0.06c0.159,0.062,0.311,0.073,0.446,0.021   c0.334-0.131,0.482-0.616,0.433-1.243c1.098-0.509,2.329-0.713,3.561-0.553l0.822,0.107l-1.454-4.156L62.359,374.576z"></path>
	<path fill="#E7E7F1" d="M165.697,37.936c-0.387,0.4-0.878,0.673-1.408,0.795c-0.174-0.228-0.373-0.349-0.523-0.29   c-0.053,0.021-0.094,0.063-0.125,0.12c-0.038,0.066-0.083,0.132-0.134,0.192c-0.013,0.015-0.027,0.027-0.04,0.041   c-0.062-0.004-0.124-0.005-0.185-0.013l-0.362-0.047c-0.297-0.492-0.689-0.938-1.166-1.304c0.001,0-0.005-0.364-0.005-0.364   c-0.015-0.901,0.397-1.756,1.111-2.306l0.289-0.222l-1.744-0.84l0.006,0.364c0.015,0.901-0.396,1.756-1.11,2.306l-0.289,0.223   c-0.582-0.145-1.176-0.173-1.751-0.097c0.006-0.002-0.256-0.255-0.256-0.255c-0.041-0.04-0.077-0.083-0.116-0.125   c0.006-0.043,0.015-0.086,0.024-0.128c0.006-0.025,0.013-0.049,0.021-0.073l0.026-0.076c0.027-0.07,0.033-0.137,0.009-0.196   c-0.057-0.146-0.268-0.211-0.541-0.191c-0.245-0.497-0.343-1.061-0.27-1.625l0.047-0.361l-1.827,0.64l0.262,0.253   c0.417,0.403,0.693,0.919,0.808,1.474c-0.223,0.173-0.34,0.369-0.282,0.518c0.021,0.053,0.063,0.094,0.12,0.125   c0.067,0.038,0.132,0.083,0.192,0.134c0.014,0.067,0.014,0.116,0.007,0.165l-0.047,0.362c-0.492,0.297-0.938,0.689-1.304,1.166   c0-0.001-0.364,0.005-0.364,0.005c-0.901,0.015-1.756-0.397-2.305-1.111l-0.223-0.289l-0.84,1.745l0.364-0.006   c0.901-0.015,1.756,0.396,2.305,1.11l0.223,0.289c-0.145,0.582-0.173,1.176-0.096,1.752c-0.002-0.007-0.255,0.255-0.255,0.255   c-0.048,0.05-0.101,0.094-0.152,0.14c-0.055-0.007-0.108-0.016-0.162-0.028c-0.025-0.006-0.049-0.013-0.073-0.021l-0.076-0.026   c-0.07-0.027-0.137-0.032-0.196-0.009c-0.147,0.058-0.212,0.271-0.19,0.546c-0.483,0.224-1.024,0.314-1.566,0.244l-0.362-0.047   l0.64,1.828l0.253-0.262c0.387-0.401,0.878-0.673,1.408-0.795c0.174,0.228,0.373,0.348,0.523,0.29   c0.053-0.021,0.094-0.063,0.125-0.12c0.038-0.066,0.083-0.132,0.134-0.191c0.013-0.015,0.027-0.027,0.04-0.041   c0.062,0.004,0.124,0.005,0.185,0.013l0.361,0.047c0.297,0.492,0.689,0.939,1.166,1.304c-0.001-0.001,0.005,0.364,0.005,0.364   c0.015,0.901-0.396,1.756-1.11,2.305l-0.289,0.223l1.744,0.84l-0.006-0.364c-0.015-0.9,0.396-1.756,1.11-2.305l0.289-0.222   c0.582,0.144,1.176,0.172,1.751,0.096c-0.006,0.002,0.256,0.256,0.256,0.256c0.058,0.057,0.111,0.117,0.164,0.178   c-0.007,0.066-0.017,0.132-0.032,0.195c-0.006,0.025-0.013,0.049-0.021,0.073l-0.026,0.076c-0.027,0.07-0.032,0.137-0.009,0.196   c0.058,0.147,0.273,0.212,0.551,0.189c0.205,0.468,0.286,0.987,0.219,1.507l-0.047,0.361l1.827-0.639l-0.262-0.254   c-0.385-0.372-0.648-0.84-0.777-1.346c0.229-0.175,0.351-0.374,0.292-0.525c-0.021-0.053-0.063-0.094-0.12-0.125   c-0.067-0.038-0.132-0.083-0.192-0.134c-0.023-0.02-0.042-0.042-0.064-0.063c0.004-0.074,0.006-0.148,0.016-0.223l0.047-0.361   c0.492-0.297,0.938-0.689,1.304-1.166c0,0.001,0.364-0.005,0.364-0.005c0.901-0.015,1.756,0.396,2.305,1.11l0.222,0.289l0.84-1.744   l-0.364,0.006c-0.901,0.016-1.756-0.396-2.306-1.11l-0.222-0.289c0.145-0.582,0.173-1.176,0.096-1.751   c0.002,0.006,0.255-0.255,0.255-0.255c0.048-0.05,0.101-0.094,0.152-0.14c0.055,0.007,0.109,0.016,0.162,0.027   c0.024,0.006,0.049,0.014,0.073,0.021l0.076,0.026c0.07,0.027,0.137,0.032,0.196,0.009c0.147-0.058,0.212-0.271,0.19-0.546   c0.482-0.225,1.024-0.314,1.566-0.243l0.361,0.047l-0.639-1.828L165.697,37.936z"></path>
	<g>
		
			<ellipse transform="matrix(-0.866 0.5 -0.5 -0.866 691.7178 564.4732)" opacity="0.08" fill="#010101" cx="270.234" cy="374.909" rx="182.838" ry="35.233"></ellipse>
		<path opacity="0.08" fill="#010101" d="M213.01,278.86c-21.878,12.632-21.878,33.111,0,45.743    c21.879,12.631,57.351,12.631,79.229,0c21.878-12.632,21.878-33.111,0-45.743C270.36,266.229,234.889,266.229,213.01,278.86z"></path>
		<g>
			<path fill="#B1D6F2" d="M210.536,159.078c0,0,0,133.245,0,139.465c0,6.219,4.109,12.438,12.328,17.183     c16.437,9.489,43.086,9.489,59.522,0c8.219-4.745,12.327-10.964,12.327-17.183s0-139.465,0-139.465H210.536z"></path>
			<path fill="#4F80C1" d="M222.863,225.667c16.437,9.489,43.086,9.489,59.522,0c8.219-4.745,12.327-10.964,12.327-17.183     c0,15.716,0,27.221,0,28.945c0,6.219-4.108,12.438-12.327,17.183c-16.437,9.49-43.086,9.49-59.522,0     c-8.218-4.745-12.327-10.964-12.327-17.183c0-1.725,0-13.229,0-28.945C210.536,214.703,214.645,220.922,222.863,225.667z"></path>
			<path fill="#E2F0FB" d="M230.418,136.474c-8.219,4.745-19.882,16.385-19.882,22.604c0,6.219,4.109,12.438,12.328,17.183     c16.437,9.49,43.086,9.49,59.522,0c8.219-4.745,12.327-10.964,12.327-17.183s-11.813-16.499-20.032-21.243     C258.244,128.345,246.854,126.984,230.418,136.474z"></path>
			<path fill="#B1D6F2" d="M223.529,106.939c0,0,7.04,27.636,7.04,30.896c0,3.259,2.153,6.518,6.46,9.004     c8.613,4.974,22.579,4.974,31.192,0c4.307-2.486,6.46-5.745,6.46-9.004c0-3.259,7.04-30.896,7.04-30.896H223.529z"></path>
			<path fill="#E2F0FB" d="M252.686,2.077c6.87,0,13.191,5.229,13.19,12.1c-0.008,45.361,15.687,76.444,15.686,91.005     c0,4.943-1.906,9.908-8.363,13.636c-11.362,6.561-29.785,6.561-41.147,0c-5.681-3.28-8.522-7.579-8.522-11.878     c0-16.793,16.205-46.814,15.891-92.589c-0.047-6.935,6.267-12.273,13.2-12.273H252.686z"></path>
			<path fill="#5996D0" d="M285.343,252.785c-0.919,0.653-1.903,1.287-2.957,1.895c-7.593,4.385-17.366,6.717-27.305,7.05v-28.945     c9.938-0.333,19.712-2.665,27.305-7.05c1.054-0.608,2.038-1.241,2.957-1.896V252.785z"></path>
		</g>
		<g>
			<path fill="#263C80" d="M381.9,287.94l2.648,4.554c0,0,57.879-35.922,58.219-36.133c0.322-0.2,0.52-0.609,0.52-1.186     c0-1.186-0.836-2.628-1.866-3.224c-0.477-0.274-0.91-0.321-1.24-0.175C439.796,251.949,381.9,287.94,381.9,287.94z"></path>
			<path fill="#5996D0" d="M348.78,291.28l15.631,26.879c0,0,26.107-15.188,28.113-16.433c1.898-1.18,3.065-3.595,3.065-6.996     c0-6.995-4.934-15.515-11.02-19.028c-2.809-1.621-5.371-1.894-7.317-1.028C374.981,275.682,348.78,291.28,348.78,291.28z"></path>
			<path fill="#5996D0" d="M377.12,282.382l9.142,15.72c0,0,15.269-8.882,16.441-9.61c1.11-0.69,1.793-2.103,1.793-4.092     c0-4.091-2.886-9.073-6.444-11.129c-1.643-0.948-3.142-1.107-4.28-0.602C392.443,273.259,377.12,282.382,377.12,282.382z"></path>
			<path fill="#2553A3" d="M295.609,306.209l29.15,50.128c0,0,48.688-28.323,52.429-30.646c3.541-2.199,5.718-6.703,5.718-13.048     c0-13.045-9.201-28.933-20.551-35.485c-5.237-3.024-10.018-3.532-13.646-1.919C344.474,277.119,295.609,306.209,295.609,306.209z     "></path>
			<linearGradient id="SVGID_2_" gradientUnits="userSpaceOnUse" x1="152.8379" y1="360.3555" x2="370.2236" y2="360.3555">
				<stop offset="0" style="stop-color:#F8991D"></stop>
				<stop offset="1" style="stop-color:#FED900"></stop>
			</linearGradient>
			<path fill="url(#SVGID_2_)" d="M152.838,373.816l42.201,72.57c0,0,161.494-94.359,166.909-97.722     c5.126-3.184,8.276-9.704,8.276-18.889c0-18.886-13.319-41.886-29.75-51.372c-7.582-4.377-14.502-5.112-19.756-2.778     C314.586,278.35,152.838,373.816,152.838,373.816z"></path>
			<path fill="#5996D0" d="M147.203,359.221l58.464,99.354c0,0-0.492,0.566,6.943-4.052c7.04-4.372,11.365-13.325,11.365-25.938     c0-25.933-18.29-57.516-40.852-70.541c-10.411-6.011-19.086-6.713-26.301-3.508C148.402,358.277,147.203,359.221,147.203,359.221     z"></path>
			<path fill="#4F80C1" d="M135.562,385.324c0,25.933,18.29,57.516,40.852,70.541c22.562,13.026,40.852,2.563,40.852-23.369     c0-25.934-18.29-57.516-40.852-70.542C153.852,348.928,135.562,359.392,135.562,385.324z"></path>
			<path fill="#2553A3" d="M146.664,391.733c0,18.886,13.319,41.886,29.75,51.372c16.431,9.486,29.75,1.867,29.75-17.02     c0-18.886-13.319-41.886-29.75-51.372C159.983,365.228,146.664,372.848,146.664,391.733z"></path>
			<g>
				<g>
					<g>
						<path fill="#FFFFFF" d="M316.688,362.683c-0.758,0-1.372-0.614-1.372-1.372c0-18.419-13.038-40.932-29.063-50.184        c-0.656-0.379-0.882-1.218-0.503-1.874c0.381-0.657,1.22-0.879,1.874-0.503c16.783,9.689,30.437,33.269,30.437,52.561        C318.06,362.068,317.445,362.683,316.688,362.683z"></path>
					</g>
					<g>
						<path fill="#FFFFFF" d="M347.86,344.06c-0.758,0-1.372-0.614-1.372-1.372c0-18.419-13.038-40.932-29.063-50.184        c-0.656-0.379-0.882-1.218-0.503-1.874c0.381-0.657,1.22-0.879,1.874-0.503c16.783,9.689,30.437,33.269,30.437,52.561        C349.232,343.445,348.618,344.06,347.86,344.06z"></path>
					</g>
					<g>
						<path fill="#FFFFFF" d="M285.109,380.9c-0.758,0-1.372-0.614-1.372-1.372c0-18.419-13.038-40.932-29.063-50.184        c-0.656-0.379-0.882-1.219-0.503-1.874c0.38-0.658,1.22-0.879,1.874-0.503c16.783,9.689,30.437,33.269,30.437,52.561        C286.481,380.286,285.867,380.9,285.109,380.9z"></path>
					</g>
					<g>
						<path fill="#FFFFFF" d="M253.937,399.119c-0.758,0-1.372-0.614-1.372-1.372c0-18.419-13.039-40.931-29.065-50.184        c-0.656-0.379-0.881-1.219-0.502-1.874c0.377-0.657,1.215-0.881,1.874-0.503c16.783,9.69,30.437,33.269,30.437,52.561        C255.309,398.505,254.694,399.119,253.937,399.119z"></path>
					</g>
				</g>
				<g>
					<g>
						<path fill="#FFFFFF" d="M300.696,372.196c-0.758,0-1.372-0.614-1.372-1.372c0-9.388-3.49-20.422-9.576-30.274        c-0.398-0.645-0.198-1.489,0.446-1.888c0.644-0.398,1.49-0.199,1.888,0.446c6.347,10.273,9.986,21.833,9.986,31.716        C302.068,371.582,301.454,372.196,300.696,372.196z"></path>
					</g>
					<g>
						<path fill="#FFFFFF" d="M331.869,353.573c-0.758,0-1.372-0.614-1.372-1.372c0-8.652-2.888-18.535-8.13-27.827        c-0.373-0.659-0.14-1.496,0.521-1.869c0.658-0.372,1.495-0.14,1.869,0.521c5.471,9.696,8.484,20.058,8.484,29.175        C333.241,352.959,332.627,353.573,331.869,353.573z"></path>
					</g>
					<g>
						<path fill="#FFFFFF" d="M269.118,390.415c-0.758,0-1.372-0.614-1.372-1.372c0-9.326-3.452-20.3-9.473-30.105        c-0.396-0.646-0.194-1.49,0.451-1.887c0.644-0.397,1.489-0.195,1.887,0.451c6.278,10.226,9.879,21.722,9.879,31.541        C270.49,389.801,269.876,390.415,269.118,390.415z"></path>
					</g>
					<g>
						<path fill="#FFFFFF" d="M237.945,408.633c-0.758,0-1.372-0.614-1.372-1.372c0-8.896-3.029-19.025-8.529-28.523        c-0.38-0.655-0.156-1.495,0.5-1.875c0.656-0.379,1.496-0.155,1.875,0.5c5.739,9.909,8.898,20.527,8.898,29.898        C239.316,408.019,238.703,408.633,237.945,408.633z"></path>
					</g>
				</g>
			</g>
			<path fill="#263C80" d="M105.848,431.398l18.826,30.363c0,0,58.398-36.092,60.688-37.401s3.707-4.128,3.707-8.145     c0-8.033-5.666-17.815-12.654-21.851c-3.494-2.018-6.658-2.216-8.948-0.906C165.176,394.77,105.848,431.398,105.848,431.398z"></path>
			<g>
				<path fill="#4F80C1" d="M95.619,416.313l32.677,56.145c0,0,1.079-0.472,5.269-3.074c3.967-2.464,6.404-7.509,6.404-14.615      c0-14.613-10.306-32.41-23.02-39.751c-5.867-3.387-10.755-3.782-14.821-1.977C97.383,415.147,95.619,416.313,95.619,416.313z"></path>
				<path fill="#2553A3" d="M88.938,431.094c0,14.613,10.307,32.41,23.02,39.75c12.714,7.34,23.021,1.444,23.021-13.169      s-10.307-32.411-23.021-39.751C99.245,410.584,88.938,416.479,88.938,431.094z"></path>
			</g>
		</g>
	</g>
	<g>
		<g>
			<path fill="#FFFFFF" d="M430.717,177.771c0,32.42-22.865,45.5-51.07,29.216c-28.206-16.285-51.071-55.768-51.071-88.188     s22.865-45.501,51.071-29.216C407.852,105.867,430.717,145.351,430.717,177.771z"></path>
		</g>
		<g>
			<g>
				<path fill="#96D1F2" d="M397.904,176.895c0.888,1.869,3.177,6.69,1.755,11.243c-1.542,4.937-6.31,5.915-7.3,6.118      c-4.463,0.915-9.581-1.326-12.824-5.394c-6.029-7.565-5.458-21.305,0.195-24.392      C385.226,161.469,394.26,169.219,397.904,176.895z"></path>
			</g>
			<g>
				<path fill="#4F80C1" d="M397.306,149.427c-1.313-2.058-2.65-4.101-3.391-6.453c-1.914-6.08,4.061-9.157,7.499-7.867      c5.773,2.166,9.317,10.253,9.338,17.718c0.015,5.251-1.271,11.776-4.208,15.24c-0.813,0.959-2.154,1.393-3.077,0.421      c-0.943-0.994-0.953-2.804-1.028-4.348c-0.18-3.698-1.279-7.335-2.779-10.598C398.999,152.105,398.158,150.763,397.306,149.427z      "></path>
			</g>
			<g>
				<g>
					<g>
						<path fill="#5CB7E7" d="M363.35,110.057c-0.896,0.689-1.717,1.447-2.437,2.221c-8.963,9.634-12.766,28.468-2.261,38.542        c1.288,1.236,4.899,4.698,9.887,4.285c3.738-0.31,7.136-2.703,8.855-5.789c0.408-0.732,1.505-2.743,1.307-5.313        c-0.134-1.747-0.936-3.375-2.293-5.415c-3.095-4.651-1.686-10.313,0.6-14.975c1.865-3.804,3.8-7.625,1.777-11.822        c-1.063-2.204-3.095-3.941-5.465-4.548C369.82,106.349,366.207,107.855,363.35,110.057z"></path>
					</g>
				</g>
				<g>
					<g>
						<path fill="#5CB7E7" d="M385.167,149.421c-0.47,0.552-1.237,0.807-1.976,0.587l-8.942-2.653c-1-0.296-1.569-1.348-1.272-2.347        c0.293-1.004,1.347-1.571,2.347-1.274l8.942,2.653c1,0.297,1.569,1.348,1.272,2.347        C385.461,148.996,385.332,149.227,385.167,149.421z"></path>
					</g>
				</g>
				<g>
					<g>
						<path fill="#5CB7E7" d="M374.251,162.242c-0.194,0.228-0.445,0.414-0.743,0.531c-0.97,0.383-2.067-0.094-2.449-1.063        l-3.93-9.958c-0.384-0.97,0.094-2.065,1.063-2.45c0.97-0.383,2.066,0.094,2.449,1.063l3.93,9.958        C374.836,160.996,374.688,161.729,374.251,162.242z"></path>
					</g>
				</g>
				<g>
					<g>
						<path fill="#5CB7E7" d="M358.057,159.407c-0.57,0.67-1.55,0.869-2.351,0.427c-0.912-0.504-1.243-1.653-0.737-2.565l5.36-9.694        c0.507-0.91,1.653-1.244,2.566-0.739c0.912,0.504,1.243,1.653,0.737,2.565l-5.36,9.695        C358.21,159.208,358.138,159.313,358.057,159.407z"></path>
					</g>
				</g>
				<g>
					<g>
						<path fill="#5CB7E7" d="M358.58,142.288c-0.179,0.21-0.405,0.384-0.675,0.503l-9.594,4.23        c-0.954,0.42-2.069-0.012-2.489-0.965c-0.422-0.956,0.014-2.07,0.966-2.49l9.594-4.23c0.954-0.42,2.069,0.013,2.489,0.966        C359.174,140.986,359.035,141.754,358.58,142.288z"></path>
					</g>
				</g>
				<g>
					<g>
						<path fill="#5CB7E7" d="M357.32,132.118c-0.403,0.474-1.031,0.738-1.693,0.648l-9.727-1.323        c-1.033-0.14-1.756-1.092-1.616-2.125c0.141-1.035,1.093-1.757,2.126-1.616l9.726,1.322c1.033,0.141,1.757,1.092,1.616,2.125        C357.702,131.521,357.546,131.853,357.32,132.118z"></path>
					</g>
				</g>
				<g>
					<g>
						<path fill="#5CB7E7" d="M361.621,120.693c-0.563,0.662-1.53,0.867-2.328,0.438l-8.761-4.696        c-0.919-0.493-1.265-1.638-0.771-2.556c0.496-0.922,1.637-1.265,2.556-0.772l8.76,4.696c0.919,0.492,1.266,1.637,0.772,2.556        C361.784,120.481,361.707,120.592,361.621,120.693z"></path>
					</g>
				</g>
				<g>
					<g>
						<path fill="#5CB7E7" d="M368.077,113.109c-0.248,0.291-0.586,0.51-0.985,0.608c-1.012,0.25-2.035-0.369-2.285-1.382        l-2.165-8.801c-0.248-1.012,0.37-2.036,1.383-2.284c1.012-0.25,2.034,0.369,2.284,1.382l2.166,8.801        C368.624,112.046,368.458,112.663,368.077,113.109z"></path>
					</g>
				</g>
				<g>
					<g>
						<path fill="#5CB7E7" d="M374.973,114.296c-0.65,0.765-1.794,0.888-2.595,0.266c-0.824-0.64-0.973-1.827-0.332-2.65        l6.475-8.333c0.604-0.833,1.825-0.972,2.648-0.333c0.824,0.64,0.973,1.827,0.332,2.65l-6.475,8.333        C375.01,114.252,374.991,114.274,374.973,114.296z"></path>
					</g>
				</g>
				<g>
					<g>
						<path fill="#5CB7E7" d="M385.662,121.12c-0.338,0.396-0.836,0.652-1.396,0.664l-9.231,0.2        c-1.042,0.023-1.905-0.804-1.929-1.847c-0.022-1.043,0.804-1.905,1.847-1.928l9.23-0.2c1.043-0.023,1.906,0.804,1.93,1.847        C386.122,120.337,385.951,120.78,385.662,121.12z"></path>
					</g>
				</g>
				<g>
					<g>
						<path fill="#5CB7E7" d="M382.26,134.135c-0.356,0.418-0.891,0.678-1.482,0.664l-9.964-0.231        c-1.042-0.024-1.868-0.889-1.843-1.931c0.021-1.046,0.889-1.869,1.932-1.845l9.964,0.232c1.041,0.024,1.868,0.889,1.843,1.931        C382.699,133.406,382.531,133.816,382.26,134.135z"></path>
					</g>
				</g>
			</g>
		</g>
		<g>
			<path fill="#E4185A" d="M378.585,209.875c-29.251-16.887-53.047-57.983-53.047-91.608c0-17.099,5.985-29.972,16.851-36.245     c10.934-6.312,25.188-5.028,40.146,3.608c29.249,16.888,53.045,57.982,53.045,91.608c0,17.099-5.983,29.971-16.849,36.245     c-4.572,2.64-9.726,3.95-15.271,3.95C395.75,217.434,387.287,214.899,378.585,209.875z M346.338,88.862     c-8.32,4.804-12.901,15.247-12.901,29.405c0,31.11,22.025,69.138,49.098,84.769c12.414,7.165,23.865,8.447,32.247,3.607     c8.318-4.803,12.899-15.246,12.899-29.405c0-31.112-22.023-69.138-49.096-84.769c-7.468-4.312-14.587-6.492-20.899-6.492     C353.503,85.978,349.678,86.935,346.338,88.862z"></path>
		</g>
		<g>
			
				<rect x="338.268" y="143.85" transform="matrix(-0.7071 0.7071 -0.7071 -0.7071 754.1787 -16.7934)" fill="#E4185A" width="84.599" height="7.897"></rect>
		</g>
	</g>
</g>
</svg>