<svg xmlns="http://www.w3.org/2000/svg" xmlns:xlink="http://www.w3.org/1999/xlink" id="Layer_1" x="0px" y="0px" width="915px" height="965px" viewBox="0 0 915 965" xml:space="preserve">
<metadata>

                                                                                                    
                                                                                                    
                                                                                                    
                                                                                                    
                                                                                                    
                                                                                                    
                                                                                                    
                                                                                                    
                                                                                                    
                                                                                                    
                                                                                                    
                                                                                                    
                                                                                                    
                                                                                                    
                                                                                                    
                                                                                                    
                                                                                                    
                                                                                                    
                                                                                                    
                                                                                                    
                           

	</metadata>
<path fill="#FEE8E1" d="M4.179,848.131l27.975-302.625c0,0-127.73-831.383,291.55-433.851  C497.263,276.21,600.14,125.929,799.646,353.162c88.322,100.598,64.011,226.055,78.937,278.327  c113.908,398.926-50.007,289.934-343.919,304.141C224.285,950.629,4.179,848.131,4.179,848.131"></path>
<path fill="#7B8DC7" d="M15.001,642.928c0,0,237.614-78.86,274.184-40.86v60c0,0-0.431,28-54.594,22l-7.916-45.754  c0,0-7.063-18.381-74.582,9.687L4.179,695.671L15.001,642.928z"></path>
<path fill="#D3E7F7" d="M414.999,893.93c-2.469-10.145-9.048-18.616-17.796-24.271c2.667-6.077,3.414-12.955,1.718-19.924  c-3.025-12.425-13.049-22.005-25.489-26.005c-0.083-0.445-0.14-0.891-0.249-1.339c-3.093-12.706-15.875-21.452-29.761-21.148  c-6.708-12.396-21.053-19.906-35.367-17.428c-13.313,2.307-22.609,12.567-24.151,24.95c-4.708-0.917-9.687-1.034-14.694-0.167  c-15.479,2.682-26.448,13.777-28.036,26.777c-2.797-1.716-5.827-3.116-9.021-4.144c-0.083-0.446-0.14-0.891-0.249-1.339  c-3.093-12.706-15.875-21.452-29.761-21.149c-6.708-12.396-21.053-19.905-35.367-17.426c-13.313,2.306-22.609,12.566-24.151,24.949  c-4.708-0.917-9.687-1.033-14.693-0.166c-19.265,3.337-31.557,19.704-27.454,36.558c-19.265,3.336-31.556,19.703-27.454,36.557  c3.193,13.113,15.38,22.621,29.703,24.639c-2.25,6.226-2.739,13.283-0.986,20.484c4.779,19.631,24.27,32.839,43.534,29.502  c5.475-0.948,10.314-3.164,14.368-6.253c8.1,5.919,19.04,8.732,30.102,6.816c12.409-2.149,21.892-9.718,25.997-19.327  c7.659,2.814,16.221,3.75,24.82,2.259c4.1-0.71,7.928-1.932,11.441-3.562c8.617,9.593,21.631,14.803,34.551,12.564  c5.475-0.948,10.314-3.164,14.367-6.254c8.101,5.92,19.041,8.733,30.102,6.817c12.41-2.149,21.893-9.718,25.998-19.328  c7.659,2.815,16.221,3.749,24.82,2.26C405.333,935.764,420.18,915.212,414.999,893.93"></path>
<path fill="#FFFFFF" d="M497.585,905.977c-1.381-5.675-5.062-10.415-9.955-13.578c1.491-3.4,1.909-7.248,0.961-11.146  c-1.693-6.951-7.301-12.311-14.26-14.548c-0.047-0.25-0.079-0.499-0.14-0.749c-1.731-7.108-8.882-12.002-16.65-11.833  c-3.753-6.934-11.778-11.136-19.786-9.749c-7.448,1.29-12.649,7.031-13.512,13.958c-1.742-0.339-3.551-0.478-5.387-0.396  c-3.094-2.474-7.155-3.905-11.408-3.813c-3.752-6.934-11.778-11.136-19.785-9.749c-7.449,1.29-12.649,7.031-13.511,13.958  c-2.635-0.513-5.419-0.578-8.221-0.093c-10.777,1.867-17.654,11.023-15.359,20.452c-10.777,1.867-17.654,11.023-15.358,20.452  c1.786,7.337,8.604,12.655,16.617,13.784c-1.259,3.482-1.533,7.431-0.552,11.46c2.674,10.982,13.578,18.371,24.356,16.505  c3.063-0.531,5.77-1.77,8.037-3.498c4.532,3.312,10.652,4.886,16.841,3.813c3.664-0.635,6.863-2.119,9.414-4.164  c4.508,3.27,10.17,4.823,15.8,3.849c3.063-0.531,5.77-1.77,8.037-3.498c4.532,3.312,10.653,4.886,16.841,3.813  c6.943-1.202,12.248-5.437,14.545-10.813c4.285,1.575,9.074,2.098,13.885,1.265C492.179,929.382,500.483,917.884,497.585,905.977"></path>
<path fill="#D3E7F7" d="M291.066,790.576c0.93-2.141,1.19-4.563,0.599-7.02c-1.055-4.378-4.551-7.753-8.889-9.164  c-0.029-0.157-0.048-0.313-0.086-0.472c-1.079-4.477-5.537-7.559-10.379-7.452c-2.34-4.367-7.342-7.014-12.334-6.141  c-4.642,0.813-7.885,4.429-8.422,8.792c-1.642-0.323-3.378-0.364-5.124-0.059c-6.719,1.176-11.005,6.942-9.574,12.881  c-6.719,1.176-11.005,6.943-9.574,12.882c1.113,4.621,5.363,7.971,10.358,8.682c-0.785,2.193-0.955,4.681-0.344,7.219  c1.667,6.917,8.464,11.571,15.182,10.396c1.909-0.335,3.597-1.115,5.01-2.204c2.826,2.086,6.64,3.077,10.498,2.402  c4.328-0.758,7.635-3.425,9.066-6.811c2.671,0.992,5.657,1.321,8.656,0.797c8.192-1.435,13.37-8.677,11.563-16.176  C296.411,795.556,294.117,792.569,291.066,790.576"></path>
<path fill="#F8A88A" d="M418.523,707.342l-74.106,64.491c0,0-28.027-20.681-79.216,19.635c0,0-1.504,8.241,14.071,3.02  l31.491-13.174l-52.011,38.045c0,0-4.473,8.759,7.079,4.329l35.436-20.892l-41.59,29.508c0,0-7.441,7.828,3.468,7.427  c11.741-0.433,45.641-25.643,45.641-25.643l-30.409,25.233c0,0-7.298,6.146,2.143,6.615l36.452-24.108  c0,0-9.805,9.458-18.643,21.737c-11.359,15.783,12.722,4.5,61.953-49.963l63.466-39.677L418.523,707.342z"></path>
<path fill="#FFFFFF" d="M319.019,795.293c-2.358-4.373-6.058-7.935-10.92-10.045c-8.67-3.763-18.847-1.965-26.843,3.828  c-0.3-0.15-0.587-0.316-0.899-0.452c-8.866-3.848-19.805,0.012-25.931,8.631c-10.324-1.499-21.246,3.873-26.288,13.737  c-4.689,9.174-2.883,19.487,3.689,26.02c-2.676,2.463-5.004,5.451-6.768,8.901c-6.785,13.276-2.753,28.175,9.007,33.278  c-6.785,13.275-2.753,28.175,9.007,33.279c9.15,3.971,20.266,0.818,27.953-7.02c2.634,4.185,6.557,7.67,11.582,9.852  c13.698,5.944,30.303,0.002,37.088-13.273c1.928-3.773,2.823-7.729,2.849-11.601c7.154-2.276,13.772-7.689,17.668-15.312  c4.371-8.552,4.231-17.762,0.451-24.609c5.13-3.407,9.565-8.217,12.594-14.143c8.275-16.189,2.944-34.538-11.906-40.983  C334.272,792.31,326.311,792.503,319.019,795.293"></path>
<path fill="#FFFFFF" d="M188.874,863.634c4.068,1.765,5.812,6.235,3.896,9.983s-6.766,5.355-10.834,3.591  c-4.068-1.766-5.812-6.235-3.896-9.984C179.956,863.476,184.806,861.868,188.874,863.634"></path>
<path fill="#FFFFFF" d="M194.743,798.25c4.067,1.766,5.812,6.235,3.896,9.984c-1.916,3.748-6.767,5.355-10.834,3.59  c-4.068-1.765-5.812-6.235-3.896-9.983C185.824,798.093,190.675,796.485,194.743,798.25"></path>
<path fill="#F9BBA2" d="M448.995,776.263l-85.948,32.674c0,0-23.108-26.659-82.644,1.822c0,0-3.315,7.81,13.236,6.105l34.045-6.028  L267.84,836.89c0,0-6.365,7.663,6.034,5.851l39.657-12.781l-47.651,19.93c0,0-9.091,6.084,1.779,8.109  c11.699,2.179,50.797-15.211,50.797-15.211l-35.653,18.186c0,0-8.577,4.456,0.649,7.015l41.376-15.734c0,0-11.79,7.17-23.25,17.345  c-14.728,13.076,11.575,7.271,72.316-35.626l70.123-12.313L448.995,776.263z"></path>
<path fill="#F8A17E" d="M780.937,651.341c25.652-37.011,32.063-76.28,26.137-126.462c-8.396-71.082-122.891-56.271-122.891-56.271  l-10.769,3.046l-29.132-9.651l-33.143,12.102c-2.746,1.003-5.738,1.037-8.537,0.191c-10.924-3.301-32.623-17.892-70.057,30.207  c-0.82,1.054-9.201,15.711-9.677,16.959l-56.422,137.33c-0.78,2.051-2.048,3.881-3.693,5.332L346.6,766.616l20.798,30.257  l5.054-3.944c111.572-59.962,132.222-96.351,135.659-104.59c-3.874,12.269-5.579,44.607-7.897,53.124l-128.751,64.274l5.496,36.762  l113.281-27.935c-7.013,51.395-14.954,123.375-14.954,123.375h229.115l50.885-0.001  C717.558,878.991,776.117,665.279,780.937,651.341"></path>
<path fill="#F8D0B9" d="M600.082,448.624c0,0,13.536,29.552,1.41,45.346c0,0,47.513,24.762,88.239-25.57  c0,0-8.159-66.385-8.688-112.926L600.082,448.624z"></path>
<path fill="#F8D0B9" d="M717.737,310.716c2.312,74.303-46.354,136.11-108.695,138.049c-62.344,1.939-114.758-56.722-117.069-131.024  c-2.312-74.302,46.353-136.109,108.696-138.049C663.011,177.752,715.425,236.413,717.737,310.716"></path>
<path fill="#1C2755" d="M671.739,176.164C659.8,164.907,562.593,76.372,501.429,118.22c0,0-31.18,27.215,17.553,57.176  c0,0-81.01-25.672-77.794,12.697c0,0-3.62,21.367,14.253,34.901c0,0-55.708,38.309,36.734,57.616c0,0,75.187-26.215,90.34-59.846  c0,0-2.702,28.669,23.076,31.563c8.063,0.905,26.203-4.792,40.274-16.581l13.799-12.086c0,0,18.474,67.855-4.11,128.335  l16.531-2.418l4.467-32.729l34.326,33.802c0,0,22.75-41.586,22.7-60.188c0,0,8.586-60.629-29.993-89.878l-29.1-22.098  C673.529,177.76,672.612,176.987,671.739,176.164"></path>
<path fill="none" stroke="#E1E2F2" stroke-width="4" stroke-miterlimit="10" d="M662.729,326.802l30.953-21.326l21.213,54.617  c0,0-16.522,52.584-49.612,39.344"></path>
<path fill="#F8D0B9" d="M676.552,316.847c0,0,11.139-31.512,39.322-23.3s24.66,61.319-18.639,90.931  c0,0-14.322,13.625-22.442,13.763L676.552,316.847z"></path>
<g>
	<defs>
		<path id="SVGID_1_" d="M600.603,177.556c-62.344,1.94-111.007,63.747-108.696,138.049    c2.312,74.305,54.726,132.965,117.068,131.024c62.343-1.939,111.008-63.747,108.694-138.048    c-2.274-73.11-53.045-131.078-114.063-131.072C602.61,177.51,601.603,177.524,600.603,177.556"></path>
	</defs>
	<clipPath id="SVGID_2_">
		<use xlink:href="#SVGID_1_"></use>
	</clipPath>
	<path clip-path="url(#SVGID_2_)" fill="#FFFFFF" d="M667.79,319.442c0,0-99.834,57.99-177.861,36.126   c0,0,38.283,103.062,106.636,99.924c0,0,56.117-4.807,86.793-56.082C683.357,399.41,660.61,351.542,667.79,319.442"></path>
	<path clip-path="url(#SVGID_2_)" fill="#E1E2F2" d="M497.017,385.825c1.73,0.813,3.492,1.519,5.279,2.145   c1.777,0.648,3.574,1.232,5.388,1.743c3.622,1.032,7.265,1.926,10.95,2.589c7.353,1.391,14.795,2.053,22.221,2.255   c7.432,0.183,14.861-0.174,22.244-0.979l2.768-0.291l2.76-0.385c1.838-0.276,3.686-0.466,5.512-0.834l5.494-0.955l5.459-1.17   c7.266-1.617,14.488-3.521,21.603-5.826c7.157-2.176,14.173-4.836,21.198-7.517c14.033-5.444,27.695-11.954,41.5-18.532   c-12.042,9.43-25.131,17.549-38.966,24.289l-5.231,2.447l-2.626,1.206l-2.669,1.108l-5.355,2.194   c-1.789,0.722-3.625,1.328-5.437,1.998c-3.616,1.365-7.336,2.437-11.032,3.585c-1.847,0.584-3.746,0.992-5.615,1.496   c-1.879,0.477-3.746,0.991-5.652,1.362c-7.564,1.722-15.291,2.78-23.044,3.363c-7.757,0.55-15.573,0.504-23.315-0.305   c-7.742-0.791-15.396-2.394-22.785-4.727c-3.674-1.251-7.295-2.63-10.772-4.316C503.426,390.077,500.029,388.202,497.017,385.825"></path>
	<path clip-path="url(#SVGID_2_)" fill="#E1E2F2" d="M533.313,425.803c1.426,0.95,2.904,1.776,4.424,2.511   c1.502,0.761,3.048,1.424,4.611,2.013c3.125,1.183,6.312,2.127,9.547,2.771c3.217,0.713,6.493,1.058,9.748,1.284l2.452,0.055   c0.816,0.026,1.628,0.069,2.446,0.022c1.632-0.058,3.256-0.058,4.882-0.231c6.496-0.51,12.909-1.815,19.164-3.701   c6.269-1.852,12.371-4.341,18.292-7.239c5.979-2.786,11.696-6.176,17.38-9.624l4.195-2.719c1.401-0.904,2.813-1.794,4.168-2.776   l4.116-2.871c1.399-0.924,2.738-1.935,4.078-2.944c10.857-7.916,21.229-16.601,31.834-25.267   c-8.18,10.979-17.563,21.053-27.897,30.174c-5.151,4.58-10.658,8.779-16.341,12.755c-1.417,1.001-2.916,1.886-4.373,2.831   c-1.48,0.912-2.904,1.911-4.441,2.739l-4.57,2.545c-0.754,0.438-1.532,0.832-2.322,1.209l-2.357,1.154   c-3.119,1.577-6.404,2.845-9.648,4.173l-4.997,1.702c-1.66,0.576-3.39,0.979-5.085,1.45c-6.833,1.749-13.909,2.753-21.004,2.675   c-3.543-0.002-7.086-0.369-10.574-0.928c-3.475-0.695-6.918-1.484-10.223-2.712c-3.287-1.256-6.486-2.712-9.45-4.553   C538.417,430.461,535.603,428.372,533.313,425.803"></path>
</g>
<path fill="#1C2755" d="M526.207,342.366c1.627,7.125,0.117,13.545-3.374,14.343s-7.641-4.332-9.268-11.456  c-1.627-7.125-0.115-13.547,3.375-14.344S524.58,335.241,526.207,342.366"></path>
<path fill="#1C2755" d="M593.702,333.711c1.627,7.125,0.116,13.546-3.375,14.345c-3.489,0.797-7.639-4.332-9.267-11.457  c-1.627-7.125-0.116-13.547,3.374-14.344C587.926,321.458,592.075,326.586,593.702,333.711"></path>
<path fill="#1C2755" d="M559.354,308.021c3.248-3.928,8.125-6.329,13.109-7.658c5.048-1.297,10.367-1.308,15.45-0.481  c5.139,0.728,9.94,2.669,14.503,4.843c2.225,1.212,4.365,2.568,6.473,3.921c1.991,1.557,3.975,3.091,5.811,4.799  c-2.422-0.778-4.693-1.731-6.956-2.661c-2.308-0.829-4.601-1.64-6.849-2.486c-4.601-1.403-9.127-2.887-13.779-3.543  c-4.621-0.751-9.297-1.069-13.961-0.583c-1.15,0.174-2.346,0.224-3.49,0.49l-1.751,0.324l-1.724,0.459  C563.874,306.052,561.599,306.884,559.354,308.021"></path>
<path fill="#1C2755" d="M524.024,313.484c-2.782,0.572-5.391,1.211-7.876,2.051c-2.481,0.834-4.799,1.897-6.886,3.255  c-1.082,0.635-1.988,1.477-2.969,2.253c-0.834,0.917-1.803,1.743-2.521,2.804c-0.851,0.971-1.499,2.096-2.214,3.232  c-0.43,0.542-0.635,1.181-0.977,1.781c-0.318,0.608-0.649,1.227-1.031,1.85c-0.023-0.705,0.005-1.414,0.044-2.132  c0.056-0.714,0.063-1.451,0.263-2.144l0.574-2.107c0.079-0.364,0.218-0.702,0.389-1.028l0.483-0.998  c0.582-1.382,1.567-2.526,2.483-3.723l1.641-1.555c0.535-0.538,1.21-0.889,1.813-1.337c2.521-1.638,5.395-2.62,8.273-2.984  C518.396,312.375,521.322,312.512,524.024,313.484"></path>
<path fill="#E58769" d="M492.284,747.179c11.907-7.144,23.695-14.434,35.354-21.92c11.689-7.431,23.232-15.074,34.682-22.835  c22.853-15.59,45.278-31.773,66.758-49.109c10.828-8.563,21.271-17.578,31.506-26.81c10.328-9.141,20.035-18.926,29.537-28.892  c9.451-10.017,18.373-20.54,26.471-31.688c8.16-11.102,15.476-22.854,21.539-35.36c-4.629,13.116-11.236,25.512-18.701,37.302  c-3.691,5.939-7.864,11.541-11.98,17.191l-6.498,8.223c-2.185,2.728-4.52,5.322-6.773,7.991c-1.146,1.318-2.256,2.671-3.432,3.961  l-3.539,3.859c-2.389,2.546-4.713,5.159-7.201,7.606l-7.367,7.441l-7.563,7.237c-2.488,2.451-5.136,4.722-7.723,7.062  c-2.6,2.323-5.179,4.674-7.85,6.914l-7.955,6.789l-8.088,6.626c-10.924,8.655-22.023,17.079-33.391,25.119  c-11.426,7.955-22.955,15.754-34.775,23.093c-11.77,7.413-23.766,14.452-35.907,21.217  C517.202,734.883,504.921,741.398,492.284,747.179"></path>
<path fill="#E48668" d="M429.607,826.138c17.32-3.178,34.488-6.986,51.53-11.249c17.054-4.208,33.964-8.941,50.732-14.079  c16.739-5.231,33.376-10.772,49.741-17.02c16.375-6.208,32.57-12.888,48.381-20.373c7.938-3.672,15.783-7.538,23.522-11.601  c3.886-2.001,7.705-4.124,11.541-6.218c3.802-2.153,7.601-4.311,11.361-6.531c15.101-8.794,29.604-18.578,43.505-29.149  c27.697-21.229,52.587-46.45,71.658-76.118c-2.149,3.838-4.233,7.729-6.573,11.47c-1.146,1.886-2.293,3.771-3.536,5.595  c-1.227,1.834-2.422,3.694-3.678,5.512c-5.034,7.266-10.533,14.206-16.262,20.959c-5.772,6.718-11.946,13.081-18.293,19.269  l-4.822,4.576l-4.959,4.429c-1.637,1.497-3.354,2.897-5.037,4.342c-1.688,1.436-3.373,2.876-5.109,4.253  c-6.84,5.646-13.959,10.943-21.228,16.016c-7.253,5.1-14.702,9.911-22.261,14.536c-7.555,4.634-15.297,8.953-23.115,13.111  c-7.818,4.161-15.733,8.137-23.751,11.888c-16.06,7.452-32.437,14.183-49.05,20.234c-16.65,5.947-33.471,11.397-50.51,16.046  c-17.018,4.723-34.215,8.752-51.516,12.191C464.565,821.571,447.152,824.486,429.607,826.138"></path>
<path fill="#E48668" d="M508.746,686.542c0.968-13.773,3.037-27.412,5.604-40.946c2.558-13.54,5.737-26.971,9.597-40.229  c0.959-3.316,1.997-6.612,3.021-9.91c1.102-3.277,2.149-6.569,3.34-9.82c2.328-6.513,4.83-12.979,7.742-19.28  c2.842-6.327,6.004-12.527,9.626-18.47c3.704-5.873,7.793-11.613,12.903-16.293c-3.916,5.688-7.078,11.711-9.87,17.91l-2.058,4.662  c-0.658,1.565-1.276,3.152-1.916,4.723c-0.646,1.567-1.223,3.174-1.85,4.749c-0.627,1.577-1.212,3.173-1.775,4.777  c-1.17,3.19-2.229,6.428-3.358,9.632c-1.037,3.244-2.158,6.453-3.153,9.712c-2.065,6.487-4.045,13.011-5.934,19.565  c-3.838,13.092-7.389,26.288-11.012,39.492C516.101,660.04,512.563,673.285,508.746,686.542"></path>
<path fill="#6AC4EF" d="M308.733,729.969c0,12.348-4.97,22.357-11.102,22.357c-6.131,0-11.102-10.01-11.102-22.357  c0-12.349,11.102-22.358,11.102-22.358S308.733,717.62,308.733,729.969"></path>
<path fill="#6AC4EF" d="M284.997,707.054c0,10.29-4.386,18.631-9.796,18.631c-5.41,0-9.796-8.341-9.796-18.631  s9.796-18.632,9.796-18.632S284.997,696.764,284.997,707.054"></path>
<path fill="#6AC4EF" d="M276.507,759.517c0,6.174-2.485,11.179-5.551,11.179c-3.066,0-5.551-5.005-5.551-11.179  c0-6.175,5.551-11.18,5.551-11.18S276.507,753.342,276.507,759.517"></path>
<path fill="#FFFFFF" d="M281.618,713.897c0,1.772-1.437,3.209-3.208,3.209c-1.772,0-3.209-1.437-3.209-3.209  c0-1.771,1.437-3.208,3.209-3.208C280.181,710.689,281.618,712.127,281.618,713.897"></path>
<path fill="#FFFFFF" d="M304.049,742.034c0,1.771-1.437,3.208-3.208,3.208c-1.773,0-3.209-1.437-3.209-3.208  s1.436-3.209,3.209-3.209C302.612,738.825,304.049,740.263,304.049,742.034"></path>
<path fill="#FFFFFF" d="M275.201,763.841c0,1.513-1.226,2.738-2.738,2.738c-1.513,0-2.739-1.226-2.739-2.738  s1.226-2.739,2.739-2.739C273.975,761.102,275.201,762.328,275.201,763.841"></path>
<path fill="#FFFFFF" d="M346.225,533.089c-13.073,17.217-37.628,20.577-54.846,7.504c-17.217-13.073-20.577-37.629-7.504-54.846  c13.073-17.218,37.629-20.577,54.846-7.504C355.938,491.317,359.298,515.871,346.225,533.089"></path>
<path fill="#D3E7F7" d="M301.912,502.996c3.084,5.489,1.219,12.041-4.167,14.635c-5.384,2.595-12.25,0.247-15.334-5.242  s-1.219-12.042,4.166-14.636C291.961,495.159,298.828,497.507,301.912,502.996"></path>
<path fill="#D3E7F7" d="M292.161,524.234c0,0,7.625-1.5,9.625-4s10.5,1,9,5s3,13,6.5,13s-3.639,6.213-8.553,5.5  C303.82,543.021,282.905,531.734,292.161,524.234"></path>
<g opacity="0.47">
	<g>
		<defs>
			<rect id="SVGID_3_" x="287.119" y="481.939" width="53.355" height="53.355"></rect>
		</defs>
		<clipPath id="SVGID_4_">
			<use xlink:href="#SVGID_3_"></use>
		</clipPath>
		<path clip-path="url(#SVGID_4_)" fill="#D3E7F7" d="M340.474,508.617c0,14.733-11.944,26.677-26.678,26.677    c-14.733,0-26.677-11.943-26.677-26.677c0-14.734,11.944-26.678,26.677-26.678C328.53,481.939,340.474,493.883,340.474,508.617"></path>
	</g>
</g>
<path fill="#FFFFFF" d="M370.798,398.554c16.134-3.42,31.986,6.887,35.406,23.021c3.42,16.133-6.887,31.984-23.021,35.404  c-16.135,3.42-31.986-6.887-35.406-23.021S354.664,401.974,370.798,398.554"></path>
<path fill="#D3E7F7" d="M381.373,438.026c0.957-4.707,5.302-7.56,9.704-6.371c4.402,1.188,7.195,5.968,6.238,10.675  s-5.301,7.56-9.704,6.371C383.209,447.513,380.416,442.733,381.373,438.026"></path>
<path fill="#D3E7F7" d="M397.594,430.628c0,0-5.15-2.937-7.551-2.49c-2.402,0.445-5.563-5.814-2.702-7.375  c2.86-1.562,4.751-9.001,2.731-10.747c-2.021-1.745,5.198-1.772,7.68,1.091C400.233,413.968,406.678,430.914,397.594,430.628"></path>
<g opacity="0.47">
	<g>
		<defs>
			<rect id="SVGID_5_" x="356.962" y="408.502" width="40.705" height="40.706"></rect>
		</defs>
		<clipPath id="SVGID_6_">
			<use xlink:href="#SVGID_5_"></use>
		</clipPath>
		<path clip-path="url(#SVGID_6_)" fill="#D3E7F7" d="M361.914,415.55c7.348-8.506,20.2-9.444,28.706-2.097s9.444,20.2,2.096,28.706    c-7.347,8.506-20.199,9.444-28.706,2.097C355.504,436.908,354.566,424.056,361.914,415.55"></path>
	</g>
</g>
<path fill="#FFFFFF" d="M721.683,106.595c11.955-2.534,23.699,5.103,26.233,17.057s-5.103,23.699-17.057,26.233  s-23.699-5.102-26.233-17.057C702.093,120.874,709.728,109.129,721.683,106.595"></path>
<path fill="#D3E7F7" d="M729.519,135.842c0.709-3.487,3.928-5.601,7.189-4.721c3.262,0.881,5.331,4.422,4.622,7.909  c-0.709,3.488-3.929,5.602-7.19,4.721C730.878,142.871,728.81,139.33,729.519,135.842"></path>
<path fill="#D3E7F7" d="M741.536,130.36c0,0-3.814-2.176-5.595-1.846c-1.778,0.331-4.122-4.307-2.002-5.464  c2.12-1.157,3.521-6.669,2.023-7.962c-1.497-1.294,3.853-1.313,5.69,0.807S748.268,130.572,741.536,130.36"></path>
<g opacity="0.47">
	<g>
		<defs>
			<rect id="SVGID_7_" x="711.432" y="113.971" width="30.159" height="30.16"></rect>
		</defs>
		<clipPath id="SVGID_8_">
			<use xlink:href="#SVGID_7_"></use>
		</clipPath>
		<path clip-path="url(#SVGID_8_)" fill="#D3E7F7" d="M715.101,119.188c5.443-6.302,14.967-6.998,21.269-1.553    c6.302,5.444,6.998,14.967,1.554,21.27c-5.445,6.302-14.968,6.998-21.27,1.554C710.351,135.013,709.656,125.49,715.101,119.188"></path>
	</g>
</g>
<path fill="#FFFFFF" d="M396.112,609.067c0,18.13-14.697,32.827-32.827,32.827c-18.13,0-32.827-14.697-32.827-32.827  s14.697-32.827,32.827-32.827C381.416,576.24,396.112,590.938,396.112,609.067"></path>
<path fill="#D3E7F7" d="M351.253,611.441c4.844,2.103,6.921,7.425,4.64,11.888c-2.282,4.465-8.057,6.378-12.901,4.275  c-4.844-2.102-6.921-7.424-4.64-11.888C340.633,611.253,346.409,609.339,351.253,611.441"></path>
<path fill="#D3E7F7" d="M357.155,628.456c0,0-5.623,4.497-10.033,5.344c0,0,18.587,13.235,33.496-2.672  C380.618,631.128,359.714,643.081,357.155,628.456"></path>
<g opacity="0.47">
	<g>
		<defs>
			<rect id="SVGID_9_" x="347.123" y="592.319" width="43.426" height="43.426"></rect>
		</defs>
		<clipPath id="SVGID_10_">
			<use xlink:href="#SVGID_9_"></use>
		</clipPath>
		<path clip-path="url(#SVGID_10_)" fill="#D3E7F7" d="M390.548,614.032c0,11.992-9.721,21.713-21.713,21.713    c-11.992,0-21.713-9.721-21.713-21.713c0-11.991,9.721-21.713,21.713-21.713C380.827,592.319,390.548,602.041,390.548,614.032"></path>
	</g>
</g>
<path fill="#FFFFFF" d="M702.708,74.264c-10.486,18.917-34.323,25.751-53.24,15.264c-18.917-10.487-25.751-34.323-15.264-53.24  c10.486-18.917,34.322-25.751,53.239-15.264C706.36,31.511,713.194,55.347,702.708,74.264"></path>
<path fill="#D3E7F7" d="M654.528,50.793c3.838,4.995,2.926,11.75-2.035,15.088c-4.963,3.337-12.096,1.994-15.935-3.002  c-3.839-4.995-2.927-11.75,2.035-15.087C643.556,44.455,650.69,45.798,654.528,50.793"></path>
<path fill="#D3E7F7" d="M650.845,71.961c0,0-8.468,1.44-13.561-0.229c0,0,11.739,24.562,36.498,16.588  C673.782,88.32,645.055,88.701,650.845,71.961"></path>
<g opacity="0.47">
	<g>
		<defs>
			<rect id="SVGID_11_" x="645.466" y="37.761" width="51.817" height="51.81"></rect>
		</defs>
		<clipPath id="SVGID_12_">
			<use xlink:href="#SVGID_11_"></use>
		</clipPath>
		<path clip-path="url(#SVGID_12_)" fill="#D3E7F7" d="M694.03,76.226c-6.938,12.512-22.703,17.033-35.215,10.096    c-12.512-6.936-17.033-22.702-10.096-35.215c6.936-12.512,22.703-17.032,35.215-10.096    C696.446,47.948,700.968,63.714,694.03,76.226"></path>
	</g>
</g>
<polygon fill="#7B8DC7" points="233.564,576.24 193.545,576.24 185.404,519.395 242.251,519.395 "></polygon>
<rect x="199.416" y="572.521" fill="#7B8DC7" width="27.592" height="27.592"></rect>
</svg>