<svg xmlns="http://www.w3.org/2000/svg" xmlns:xlink="http://www.w3.org/1999/xlink" id="Layer_1" x="0px" y="0px" width="535px" height="570px" viewBox="0 0 535 570" xml:space="preserve">
<metadata>

                                                                                                    
                                                                                                    
                                                                                                    
                                                                                                    
                                                                                                    
                                                                                                    
                                                                                                    
                                                                                                    
                                                                                                    
                                                                                                    
                                                                                                    
                                                                                                    
                                                                                                    
                                                                                                    
                                                                                                    
                                                                                                    
                                                                                                    
                                                                                                    
                                                                                                    
                                                                                                    
                           

	</metadata>
<g>
	<g>
		<path fill="#4F80C1" d="M180.549,83.272l-20.746,11.921l4.495,16.474c0,0,12.647,6.63,18.695,1.488    C189.043,108.013,180.549,83.272,180.549,83.272z"></path>
		<path fill="#4F80C1" d="M401.98,211.871c-39.275-16.134-83.697-62.798-110.035-90.329c-0.531-0.015-8.93,0.769-24.041-1.736    c-52.62-8.726-87.24-36.472-87.355-36.534c0.937,41.616-9.827,32.347-9.744,35.795c0.134,5.496,0.3,11.006,0.521,16.546    c0.219,5.542,0.496,11.111,0.848,16.723c1.61,25.63,4.817,52.085,10.986,79.673c5.63,25.179,13.479,50.12,23.818,74.808    c3.447,8.228,7.169,16.429,11.179,24.602c8.019,16.345,17.185,32.574,27.579,48.685c2.598,4.027,5.273,8.047,8.025,12.062    c13.609,19.836,24.636,36.433,27.812,40.488c0.116-0.018,0.833-0.132,0.718-0.113l0.143-0.022    c85.675-14.838,112.009-84.574,118.924-160.292c1.933-21.179,2.168-40.319,2.431-59.611L401.98,211.871z"></path>
		<path fill="#5CB7E7" d="M381.211,223.776c-9.551-3.924-19.469-9.815-29.068-16.467c-10.376-7.191-20.678-15.475-30.672-24.207    c-17.009-14.865-33.801-31.596-49.514-48.8l-0.782-0.855l-0.372,0.016l-0.374,0.016c-1.836,0.077-3.71,0.089-5.612,0.04    c-1.903-0.048-3.836-0.153-5.789-0.312c-3.905-0.314-7.894-0.834-11.894-1.497c-4.781-0.792-9.658-1.823-14.589-3.047    c-4.325-1.073-8.69-2.289-13.084-3.673c-9.912-3.119-20.123-7.052-30.342-12.004c-6.779-3.284-13.81-7.132-20.688-11.668    c-2.292-1.512-4.567-3.101-6.811-4.77l-1.84-1.372l0.003,0.11l0.053,1.756c0.287,9.419,0.408,18.747,0.636,28.132    c0.134,5.495,0.299,11.006,0.52,16.547c0.221,5.541,0.496,11.109,0.848,16.722c1.611,25.629,4.818,52.083,10.986,79.671    c5.63,25.18,13.48,50.119,23.819,74.807c3.446,8.23,7.169,16.432,11.178,24.604c8.02,16.344,17.186,32.573,27.579,48.685    c2.6,4.027,5.273,8.049,8.026,12.061c8.26,12.037,17.219,24.009,26.915,35.909l0.637,0.783l0.26,0.318l0.297-0.047l0.42-0.067    l0.144-0.022c49.002-7.58,79.77-38.08,95.881-86.249c6.604-19.74,10.497-41.663,12.605-64.767    c0.92-10.067,1.497-20.355,1.855-30.781c0.305-8.943,0.437-17.986,0.554-27.043l0.023-1.786L381.211,223.776z"></path>
		<path fill="#C0E5F9" d="M366.282,233.208c-4.957-2.862-10.204-6.208-15.599-9.944c-10.401-7.21-21.146-15.686-32.849-25.913    c-15.098-13.194-30.504-28.188-45.878-44.635c-0.101-0.107-0.201-0.206-0.299-0.313c-3.705-0.073-7.654-0.378-11.832-0.87    c-0.985-0.116-1.963-0.227-2.977-0.366c-1.568-0.217-3.164-0.452-4.808-0.726c-7.054-1.168-14.369-2.809-21.831-4.893    c-2.488-0.694-4.992-1.437-7.508-2.229c-8.415-2.648-16.653-5.738-24.584-9.222c-2.644-1.161-5.253-2.364-7.825-3.611    c-2.353-1.14-4.667-2.311-6.929-3.507c-2.264-1.197-4.473-2.416-6.614-3.652c0,0-0.185-0.107-0.419-0.243    c-0.157-0.091-0.325-0.19-0.524-0.307c-0.339-0.199-0.699-0.41-0.956-0.561c0.072,3.633,0.144,7.268,0.232,10.907    c0.077,3.137,0.161,6.135,0.253,9.017c0.278,8.646,0.629,16.25,1.083,23.452c1.716,27.325,5.125,52.124,10.422,75.814    c13.98,62.517,41.476,119.466,83.949,173.78c0.396-0.082,0.771-0.193,1.165-0.279c39.793-8.67,67.409-35.276,82.117-79.244    c5.87-17.546,9.783-37.702,11.967-61.618c0.83-9.097,1.418-18.84,1.791-29.784c0.115-3.315,0.202-6.654,0.276-10.015    C367.502,233.909,366.893,233.562,366.282,233.208z"></path>
		<path fill="#96D1F2" d="M275.086,411.15c-0.391,0.087-0.768,0.198-1.161,0.28c-42.476-54.314-69.971-111.262-83.951-173.781    c-5.296-23.689-8.706-48.489-10.421-75.813c-0.454-7.203-0.806-14.807-1.083-23.452c-0.093-2.882-0.178-5.88-0.254-9.017    c-0.043-1.766-0.075-3.529-0.112-5.292c-0.444-0.251-0.915-0.494-1.353-0.747c0,0-0.185-0.107-0.419-0.243    c-0.157-0.091-0.325-0.19-0.524-0.307c-0.339-0.199-0.699-0.41-0.956-0.561c0.072,3.633,0.144,7.268,0.232,10.907    c0.077,3.137,0.161,6.135,0.253,9.017c0.278,8.646,0.629,16.25,1.083,23.452c1.716,27.325,5.125,52.124,10.422,75.814    c13.98,62.517,41.476,119.466,83.949,173.78c0.396-0.082,0.771-0.193,1.165-0.279c25.003-5.448,45.19-17.986,60.397-37.453    C317.541,394.765,298.426,406.065,275.086,411.15z"></path>
		<g>
			<polygon fill="#4F80C1" points="242.735,251.791 239.338,254.056 239.338,260.852 242.6,257.589    "></polygon>
			<polygon fill="#4F80C1" points="295.917,329.676 299.963,327.087 299.963,322.663 295.27,322.663    "></polygon>
			<path fill="#4F80C1" d="M302.447,293.557c0-1.854-0.385-3.824-1.067-5.761c-1.136-3.224-3.098-6.358-5.479-8.727     c0.002-0.037,0-0.086,0.003-0.123c0.206-6.165-0.061-15.757-2.384-25.718c-1.223-5.237-2.982-10.569-5.61-15.561     c-4.068-7.724-9.52-13.595-16.196-17.451c-6.624-3.824-12.068-4.355-16.183-1.577c-7.586,5.121-8.806,20.46-8.533,32.196     c-3.809-0.61-6.546,1.98-6.546,6.927v27.414c0,6.31,4.429,13.981,9.893,17.136l42.211,24.37c0.683,0.396,1.35,0.699,1.994,0.92     c0.644,0.22,1.265,0.354,1.856,0.407c1.67,0.146,3.085-0.386,4.14-1.451c0.064-0.067,0.148-0.104,0.213-0.177     c0.126-0.143,0.21-0.341,0.324-0.502c0.846-1.193,1.365-2.822,1.365-4.91V293.557z M259.893,225.806     c2.934-1.978,6.721-1.602,11.557,1.125c0.092,0.066,0.172,0.086,0.264,0.14c1.238,0.714,2.408,1.508,3.509,2.381     c3.306,2.619,6.013,5.963,8.211,10.134c1.546,2.935,2.743,6.079,3.667,9.279c2.766,9.601,3.056,19.696,2.866,26.062     l-18.517-10.691c0,0.001-18.535-10.7-18.535-10.7C252.634,239.014,255.095,229.044,259.893,225.806z"></path>
			<path fill="#5CB7E7" d="M299.079,295.8c0-1.854-0.384-3.822-1.067-5.756c-1.136-3.227-3.099-6.361-5.479-8.729     c0-0.038,0-0.087,0.001-0.125c0.205-6.164-0.06-15.756-2.383-25.716c-1.223-5.238-2.981-10.569-5.61-15.56     c-4.068-7.724-9.519-13.595-16.195-17.451c-6.625-3.825-12.07-4.355-16.182-1.578c-7.589,5.121-8.809,20.46-8.534,32.195     c-3.81-0.61-6.548,1.981-6.548,6.926v27.416c0,6.31,4.43,13.98,9.895,17.135l42.209,24.371c0.684,0.395,1.35,0.699,1.995,0.918     c0.644,0.221,1.266,0.354,1.856,0.407c1.67,0.148,3.086-0.384,4.138-1.449c0.066-0.066,0.151-0.105,0.215-0.177     c0.126-0.143,0.21-0.342,0.322-0.502c0.848-1.196,1.367-2.823,1.367-4.91V295.8z M256.526,228.05     c2.933-1.977,6.719-1.6,11.555,1.126c0.093,0.066,0.172,0.087,0.264,0.141c1.238,0.714,2.407,1.507,3.51,2.38     c3.306,2.619,6.013,5.964,8.21,10.135c1.547,2.934,2.743,6.078,3.666,9.28c2.767,9.6,3.055,19.694,2.868,26.06l-18.518-10.69     l-18.534-10.7C249.265,241.258,251.728,231.29,256.526,228.05z"></path>
			<path fill="#263C80" d="M272.083,289.122c-0.008-3.737-2.647-8.287-5.896-10.162c-3.249-1.877-5.875-0.367-5.867,3.37     c0.006,2.934,1.646,6.353,3.921,8.601l-1.263,8.265l6.264,3.617l-1.162-9.185C270.268,293.479,272.091,292.057,272.083,289.122z"></path>
			<g>
				<path fill="#4F80C1" d="M264.725,297.816l1.383-7.612c-2.309-2.29-3.971-5.771-3.971-8.767c0-1.365,0.354-2.425,0.945-3.153      c-1.9,0.059-3.211,1.578-3.211,4.23c0,2.994,1.662,6.479,3.972,8.77l-1.383,7.611l6.782,3.917l-0.393-2.614L264.725,297.816z"></path>
			</g>
		</g>
	</g>
	<g>
		<path fill="#E4185A" d="M147.993,244.359l-30.177-3.523l3.15-4.828c7.787-11.929,9.531-26.861,4.702-40.264l-1.954-5.424    l30.177,3.524l-3.15,4.827c-7.788,11.93-9.531,26.862-4.702,40.265L147.993,244.359z"></path>
		<path fill="#E4185A" d="M91.413,248.422l-23.854,19.05l-1.149-5.655c-2.841-13.975-12.067-25.754-24.879-31.764l-5.184-2.432    l23.854-19.05l1.148,5.655c2.841,13.975,12.066,25.754,24.879,31.764L91.413,248.422z"></path>
		<path fill="#E4185A" d="M54.165,291.667l-3.557,30.465l-4.776-3.171c-11.804-7.833-26.595-9.56-39.885-4.656l-5.378,1.984    l3.557-30.465l4.777,3.17c11.802,7.832,26.594,9.56,39.885,4.657L54.165,291.667z"></path>
		<path fill="#E4185A" d="M58.068,348.761l18.823,24.033l-5.604,1.172c-13.852,2.896-25.545,12.234-31.528,25.179l-2.421,5.237    l-18.823-24.033l5.604-1.172c13.853-2.897,25.545-12.234,31.528-25.18L58.068,348.761z"></path>
		<path fill="#E4185A" d="M100.836,386.259l30.177,3.523l-3.15,4.827c-7.788,11.93-9.531,26.861-4.702,40.265l1.954,5.423    l-30.178-3.523l3.15-4.827c7.787-11.93,9.531-26.861,4.702-40.264L100.836,386.259z"></path>
		<path fill="#E4185A" d="M157.416,382.196l23.854-19.052l1.149,5.655c2.84,13.974,12.067,25.754,24.879,31.766l5.185,2.431    l-23.855,19.05l-1.148-5.653c-2.841-13.976-12.068-25.754-24.88-31.765L157.416,382.196z"></path>
		<path fill="#E4185A" d="M194.664,338.951l3.557-30.465l4.776,3.17c11.804,7.833,26.595,9.56,39.886,4.657l5.377-1.983    l-3.557,30.463l-4.776-3.169c-11.804-7.832-26.595-9.559-39.886-4.656L194.664,338.951z"></path>
		<path fill="#E4185A" d="M190.761,281.856l-18.824-24.033l5.605-1.171c13.853-2.897,25.544-12.234,31.527-25.179l2.422-5.238    l18.824,24.033l-5.606,1.174c-13.852,2.896-25.544,12.234-31.528,25.178L190.761,281.856z"></path>
		
			<linearGradient id="SVGID_1_" gradientUnits="userSpaceOnUse" x1="-85.3467" y1="757.2695" x2="-129.7237" y2="665.4013" gradientTransform="matrix(0.9933 0.116 -0.116 0.9933 316.2235 -371.6322)">
			<stop offset="0" style="stop-color:#F8991D"></stop>
			<stop offset="1" style="stop-color:#FED900"></stop>
		</linearGradient>
		<path fill="url(#SVGID_1_)" d="M197.992,323.901c-4.79,41.02-41.614,70.428-82.25,65.683    c-40.636-4.743-69.696-41.845-64.905-82.866c4.79-41.021,41.615-70.43,82.25-65.686    C173.723,245.776,202.782,282.878,197.992,323.901z"></path>
		
			<ellipse transform="matrix(0.9933 0.116 -0.116 0.9933 37.4047 -12.3005)" fill="#F47733" cx="124.414" cy="315.309" rx="15.192" ry="15.336"></ellipse>
		<g>
			<path fill="#EF4444" d="M106.163,267.348c2.529,2.995-0.6,9.883-6.991,15.386c-6.391,5.5-13.622,7.534-16.15,4.54     c-2.531-2.996,0.599-9.884,6.99-15.386C96.401,266.385,103.633,264.354,106.163,267.348z"></path>
			<path fill="#EF4444" d="M104.17,266.154l-22.026,18.462l0.2-2.454c-0.876-10.818-7.127-18.864-16.89-22.778     c-1.148-0.459-2.348-0.783-3.568-0.978l21.634-18.22l-0.001,1.273c0,0.402,0.015,0.805,0.056,1.204     c1.108,10.863,9.666,22.004,19.608,23.326L104.17,266.154z"></path>
			<path fill="#F47733" d="M82.651,237.203c2.53,2.996-0.6,9.883-6.991,15.385c-6.39,5.502-13.622,7.534-16.151,4.54     c-2.529-2.996,0.601-9.883,6.991-15.385C72.89,236.241,80.122,234.208,82.651,237.203z"></path>
		</g>
		<g>
			<path fill="#EF4444" d="M143.882,364.851c-2.529-2.996,0.6-9.883,6.99-15.385c6.391-5.503,13.623-7.535,16.152-4.54     c2.53,2.993-0.601,9.884-6.99,15.384C153.643,365.812,146.412,367.845,143.882,364.851z"></path>
			<path fill="#EF4444" d="M145.873,366.043l22.027-18.461l-0.201,2.454c0.876,10.817,7.127,18.862,16.889,22.777     c1.148,0.459,2.348,0.783,3.569,0.979l-21.635,18.219l0.001-1.273c0-0.402-0.015-0.805-0.056-1.204     c-1.108-10.862-9.665-22.005-19.607-23.326L145.873,366.043z"></path>
			<path fill="#F47733" d="M167.394,394.994c-2.53-2.995,0.6-9.883,6.99-15.384c6.391-5.504,13.623-7.536,16.152-4.539     c2.53,2.994-0.6,9.881-6.992,15.383C177.155,395.957,169.922,397.989,167.394,394.994z"></path>
		</g>
		<g>
			<g>
				<path fill="#EF4444" d="M172.76,296.169c-2.973,2.56-9.791-0.584-15.229-7.021c-5.438-6.438-7.435-13.731-4.463-16.29      c2.973-2.562,9.791,0.583,15.229,7.021C173.735,286.315,175.733,293.61,172.76,296.169z"></path>
				<path fill="#EF4444" d="M173.947,294.156l-18.245-22.189l2.431,0.196c10.722-0.908,18.708-7.234,22.607-17.095      c0.458-1.159,0.782-2.371,0.977-3.603l18.005,21.794l-1.262,0.003c-0.397,0.001-0.797,0.016-1.192,0.057      c-10.768,1.142-21.824,9.804-23.157,19.841L173.947,294.156z"></path>
				<path fill="#F47733" d="M202.681,272.374c-2.973,2.561-9.791-0.584-15.229-7.021c-5.438-6.437-7.436-13.732-4.463-16.291      c2.974-2.559,9.792,0.585,15.229,7.021C203.655,262.522,205.653,269.815,202.681,272.374z"></path>
			</g>
			<g>
				<path fill="#EF4444" d="M76.068,334.449c2.974-2.561,9.791,0.584,15.229,7.022c5.438,6.438,7.436,13.73,4.463,16.29      c-2.973,2.56-9.79-0.585-15.229-7.022C75.093,344.301,73.096,337.009,76.068,334.449z"></path>
				<path fill="#EF4444" d="M74.882,336.462l18.244,22.189l-2.43-0.196c-10.721,0.907-18.708,7.233-22.606,17.093      c-0.459,1.16-0.782,2.373-0.978,3.605l-18.006-21.794l1.263-0.003c0.397-0.001,0.797-0.016,1.192-0.058      c10.766-1.143,21.823-9.805,23.155-19.839L74.882,336.462z"></path>
				<path fill="#F47733" d="M46.148,358.244c2.973-2.561,9.791,0.583,15.229,7.021c5.438,6.438,7.436,13.732,4.463,16.291      c-2.973,2.56-9.791-0.584-15.229-7.021S43.176,360.804,46.148,358.244z"></path>
			</g>
		</g>
	</g>
	<g>
		<g>
			<circle fill="#61A2D8" cx="279.836" cy="122.957" r="0.956"></circle>
			<circle fill="#61A2D8" cx="275.109" cy="122.957" r="0.917"></circle>
			<circle fill="#61A2D8" cx="270.385" cy="122.957" r="0.864"></circle>
			<circle fill="#61A2D8" cx="289.286" cy="127.682" r="1.14"></circle>
			<circle fill="#61A2D8" cx="284.561" cy="127.682" r="1.087"></circle>
			<circle fill="#61A2D8" cx="279.836" cy="127.682" r="1.035"></circle>
			<circle fill="#61A2D8" cx="275.109" cy="127.682" r="0.996"></circle>
			<circle fill="#61A2D8" cx="270.385" cy="127.683" r="0.943"></circle>
			<circle fill="#61A2D8" cx="265.66" cy="127.683" r="0.904"></circle>
			<circle fill="#61A2D8" cx="294.011" cy="132.407" r="1.271"></circle>
			<circle fill="#61A2D8" cx="289.286" cy="132.407" r="1.232"></circle>
			<circle fill="#61A2D8" cx="284.561" cy="132.408" r="1.179"></circle>
			<circle fill="#61A2D8" cx="279.836" cy="132.407" r="1.127"></circle>
			<circle fill="#61A2D8" cx="275.109" cy="132.407" r="1.074"></circle>
			<circle fill="#61A2D8" cx="270.385" cy="132.408" r="1.022"></circle>
			<circle fill="#61A2D8" cx="265.66" cy="132.407" r="0.694"></circle>
			<circle fill="#61A2D8" cx="294.011" cy="137.132" r="1.363"></circle>
			<circle fill="#61A2D8" cx="289.286" cy="137.133" r="1.311"></circle>
			<circle fill="#61A2D8" cx="284.561" cy="137.133" r="1.258"></circle>
			<circle fill="#61A2D8" cx="279.836" cy="137.133" r="1.205"></circle>
			<circle fill="#61A2D8" cx="275.109" cy="137.133" r="1.022"></circle>
			<circle fill="#61A2D8" cx="270.385" cy="137.133" r="0.485"></circle>
			<circle fill="#61A2D8" cx="289.286" cy="141.858" r="0.787"></circle>
			<circle fill="#61A2D8" cx="284.561" cy="141.858" r="0.603"></circle>
			<circle fill="#61A2D8" cx="279.836" cy="141.858" r="0.314"></circle>
		</g>
		<g>
			<g>
				<g>
					<path fill="#484848" d="M267.644,127.682c-0.263,0.193-0.246,1.106-0.023,1.259c0.55,0.375,1.59,1.081,1.825,1.215       c0.402,0.23,1.604,0.568,2.6-0.1c0.879-0.59,2.215-1.597,2.215-1.597v0.427l2.383-1.422c0.172-0.082,0.283-0.256,0.289-0.446       v-1.117C276.932,125.899,268.538,127.019,267.644,127.682z"></path>
					<path fill="#EF3A38" d="M272.018,124.233c0.603-0.897,1.847-2.446,3.772-1.883c0.392,0.115,1.114,0.668,1.226,1.129       c0.062,0.252-0.03,0.762,0,0.926c0.091,0.509,0.108,1.193,0.076,1.472c-0.042,0.352-0.261,0.65-0.586,0.784       c-0.692,0.284-1.85,0.758-2.322,1.142c-0.652,0.526-1.82,1.482-2.98,1.826c-0.66,0.195-1.65-0.136-1.949-0.28       c0,0-0.922-0.518-1.191-0.744c-0.521-0.439-0.623-1.117-0.378-1.507C268.57,125.688,270.617,126.315,272.018,124.233z"></path>
					<path fill="#FBCBC2" d="M275.9,124.116c-0.989,0.501-2.559,0.303-2.617-0.547c-0.178-2.596-0.603-6.124-0.603-6.124l4.17,0.249       C276.851,117.694,276.603,123.761,275.9,124.116z"></path>
				</g>
				<g>
					<path fill="#484848" d="M283.836,137.869c-0.23,0.229-0.051,1.411,0.354,1.67c0.598,0.38,1.959,0.827,2.209,0.926       c0.428,0.168,1.028,0.307,2.016-0.522c0.806-0.676,1.99-2.28,1.99-2.28v0.418l1.887-1.497c0.156-0.107,0.231-0.291,0.22-0.481       c-0.016-0.311,0.004-1.243,0.004-1.243S284.62,137.089,283.836,137.869z"></path>
					<path fill="#EF3A38" d="M287.573,133.922c0.465-0.969,1.468-2.67,3.438-2.396c0.401,0.056,1.189,0.496,1.365,0.932       c0.094,0.239,0.078,0.752,0.13,0.911c0.275,0.851,0.168,1.784,0.168,1.784s-0.042,0.374-0.505,0.603       c-0.664,0.331-1.554,0.915-1.966,1.36c-0.565,0.611-1.395,1.99-2.483,2.496c-0.621,0.288-1.641,0.107-1.954,0.007       c0,0-0.979-0.375-1.274-0.558c-0.575-0.357-0.771-1.008-0.585-1.426C284.578,136.12,286.493,136.17,287.573,133.922z"></path>
					<path fill="#FBCBC2" d="M291.591,133.264c-0.901,0.635-2.189,0.597-2.746-0.036c-0.62-0.706-0.983-7.851-0.983-7.851       l5.035,1.206C292.896,126.583,292.229,132.813,291.591,133.264z"></path>
				</g>
				<path fill="#132049" d="M292.94,130.944c0,0,0.478-17.958-0.461-25.064c-0.138-1.038-1.044-4.542-1.218-5.582      c-1.014-6.06,3.18-20.074,3.18-25.996c0-5.413-3.363-18.171-3.363-18.171l-19.447-2.818c0,0-2.251,9.533-2.399,11.858      c-0.413,6.442-1.302,18.961-0.635,26.975c0.115,1.37,1.384,3.995,1.478,5.642c0.541,9.527,2.032,24.329,2.034,24.4      c-0.012,0.671,2.336,1.839,4.39,0.922c0.688-0.308,0.94-0.774,0.975-1.255c0.427-5.973,1.602-17.082,1.363-22.776      c-0.048-1.147-0.592-5.653-0.651-6.802c-0.343-6.564,2.335-13.908,2.335-13.908s-0.377,15.848,1.32,22.212      c0.296,1.113,1.59,3.465,1.855,4.582c1.151,4.83,3.813,23.945,3.818,25.444c0.004,0.723,0.625,1.809,3.097,1.788      C291.888,132.386,292.94,131.6,292.94,130.944z"></path>
				<path fill="#375BAA" d="M293.949,56.743l4.41,35.807c0,0-15.409,3.936-18.523,4.042l-5.748-3.738l-8.428-0.933      c0,0,2.396-30.432,3.78-37.273C270.826,47.807,293.949,56.743,293.949,56.743z"></path>
				<path fill="#132049" d="M278.987,3.492c5.118-0.99,6.813,2.039,6.813,2.039s1.806,0.27,2.423,2.248      c1.11,3.555-0.941,6.082-1.16,7.011c-0.643,2.716-1.581,2.102-3.056,3.678c-1.375,1.472-8.245-2.285-9.39-5.013      c-0.394-0.935-0.575-4.845,0.426-7.203C275.709,4.683,277.688,3.743,278.987,3.492z"></path>
				<path fill="#4F80C1" d="M274.463,24.864c-0.143-2.452,3.938-6.175,7.854-5.509c3.913,0.665,6.794,4.702,6.938,7.153      c0.144,2.452-5.742,4.444-9.656,3.78C275.684,29.622,274.606,27.314,274.463,24.864z"></path>
				<path fill="#FBCBC2" d="M280.988,26.543c-1.891,0.094-2.915-1.234-2.657-2.918l-0.116-8.997l5.718,0.945      c0,0,0.169,1.936,0.185,2.583c0.032,1.209,0.162,3.433,0.162,5.336C284.279,24.45,282.907,26.323,280.988,26.543z"></path>
				<path fill="#F7A8A9" d="M278.281,19.1l0.023,3.109c0,0,1.218,0.421,2.792-0.206c2.608-1.039,2.968-3.847,2.968-3.847      l-0.132-2.583C282.73,16.864,281.165,19.564,278.281,19.1z"></path>
				<polygon fill="#42BFB8" points="264.922,56.57 268.54,58.229 269.748,54.236 266.461,53.563     "></polygon>
				<g>
					<path fill="#42BFB8" d="M262.662,61.643l4.879,0.93c0,0,0.611-1.413,0.875-2.234c0.508-1.575-0.168-3.346-0.168-3.346       l-2.417-0.819c0,0-1.622,0.261-1.977,0.639C263,57.726,262.662,61.643,262.662,61.643z"></path>
					<path fill="#42BFB8" d="M262.522,58.247c0.476-0.491,1.199-1.505,1.722-1.667c0.286-0.088,0.348,2.038,0.348,2.038       s-1.206,0.659-1.527,0.904c-0.394,0.297-0.018,1.265-0.379,1.987c-0.14,0.281-0.439,0.312-0.57,0.051       C261.797,60.936,262.029,58.754,262.522,58.247z"></path>
					<path fill="#42BFB8" d="M267.541,62.572c0,0-0.548,1.409-0.818,1.847c-0.236,0.385-1.231,1.329-1.231,1.329       c-0.224,0.259-0.336,0.387-0.552,0.32c-0.184-0.057-0.223-0.309-0.162-0.486l1.914-4.418L267.541,62.572z"></path>
					<path fill="#42BFB8" d="M265.184,61.515l1.117,0.245l-0.887,2.577c0,0-0.717,1.658-0.933,2.22       c-0.067,0.177-0.295,0.283-0.521,0.233c-0.229-0.05-0.286-0.241-0.278-0.369C263.753,65.153,265.184,61.515,265.184,61.515z"></path>
					<path fill="#42BFB8" d="M265.11,61.757l-0.993,2.604c0,0-0.453,1.462-0.842,2.234c-0.207,0.414-0.383,0.485-0.629,0.433       c-0.242-0.055-0.436-0.269-0.242-0.681c0.552-1.188,1.533-4.668,1.533-4.668L265.11,61.757z"></path>
					<path fill="#42BFB8" d="M262.662,61.643l1.204-0.295c0,0-0.755,3.696-1.097,4.906c-0.044,0.156-0.294,0.235-0.537,0.181       s-0.326-0.263-0.351-0.423c-0.036-0.234,0.02-1.978,0.118-2.537C262.098,62.917,262.662,61.643,262.662,61.643z"></path>
				</g>
				<path fill="#4F80C1" d="M271.1,53.266l-1.395,2.84c-0.068,0.151-0.269,0.099-0.41,0.015c-1.711-1.015-2.188-0.777-3.353-0.965      c-0.437-0.07-0.407-0.477-0.298-0.901c0.104-0.396,0.488-1.538,0.488-1.538L271.1,53.266z"></path>
				<path fill="#375BAA" d="M278.311,24.455c0.696,3.488-1.937,14.649-2.8,18.621c-0.897,4.13-1.447,5.619-4.251,10.858      c-0.244,0.455-0.611,1.025-1.053,0.923c-1.229-0.287-4.637-1.289-4.637-1.289c-0.501-0.234-0.264-1.465-0.178-1.94      c0.634-3.466,3.265-9.574,3.573-12.438c0.547-5.073,1.029-16.802,3.272-19.458C273.24,18.546,277.293,19.363,278.311,24.455z"></path>
				<path fill="#375BAA" d="M293.938,25.845c-2.682-2.421-7.209-4.834-9.767-6.306l0.003,0.592c0,0,1.12,2.474,0.607,4.319      c-1.414,5.089-6.413,6.08-7.531,5.094c-0.758-0.667,0.564-6.973,1.049-8.029l-0.084-2.371c-1.768-0.608-2.67-1.115-5.393-1.087      c-2.54,0.026-4.656,3.59-4.987,10.207c-0.189,3.771,2.109,19.667,2.109,26.621c0,2.164-1.309,9.101,19.282,9.109      c1.852,0.001,3.243-1.539,3.632-2.243c2.969-5.378-1.124-7.734,1.964-16.697C295.384,43.426,297.249,28.83,293.938,25.845z"></path>
				<path fill="#FBCBC2" d="M274.42,10.386c0,0-0.115,4.408-0.074,5.876c0.085,3.042,1.047,4.816,3.842,5.111      c1.91,0.201,5.295-1.433,5.998-4.395c0.442-1.86,0.643-6.593,0.643-6.593C284.663,8.001,274.26,8.053,274.42,10.386z"></path>
				<path fill="#FBCBC2" d="M284.856,13.664c-1.261-0.072-1.593,0.575-1.868,1.484c-0.277,0.909,0.176,1.777,0.992,1.809      c0.843,0.032,1.515-0.58,1.792-1.489C286.049,14.559,285.696,13.712,284.856,13.664z"></path>
				<path fill="#F7A8A9" d="M284.681,14.833l-0.291,1.198c0.27,0.137,0.687-0.513,0.769-0.843      C285.239,14.856,284.979,14.716,284.681,14.833z"></path>
				<path fill="#132049" d="M281.359,11.224l0.068,1.556c0.686,0.083,1.688,0.048,2.096-0.111l-0.091,1.454      c0,0,0.426,0.039,0.893-0.28c0.742-0.504,1.371,0.332,1.371,0.332s1.825-2.162,1.147-4.813c-0.234-0.926-0.018-1.84-1.961-3.236      c-1.652-1.185-5.682-2.144-8.505-0.261c-2.362,1.575-1.958,4.522-1.958,4.522s3.481,1.551,6.274,2.17L281.359,11.224z"></path>
				<polygon fill="#42BFB8" points="275.731,59.869 277.412,62.517 289.156,55.801 285.3,51.529     "></polygon>
				<path fill="#4F80C1" d="M282.303,60.386c0,0-1.562,0.995-2.056,1.363c-0.239,0.177-0.565,0.15-0.74-0.085      c-0.628-0.842-1.883-2.524-2.511-3.365c-0.17-0.23-0.123-0.558,0.106-0.73c0.416-0.311,1.657-1.247,1.657-1.247L282.303,60.386z      "></path>
				<path fill="#3C6EB6" d="M296.238,28.556c1.381,6.419,0.43,15.478-2.081,21.037c-2.208,4.89-7.697,9.652-10.589,11.275      c-0.66,0.372-1.646,0.806-2.239,0.343c-0.971-0.757-3.174-4.087-2.396-5.464c0.979-1.737,6.178-4.048,8.354-8.535      c1.342-2.762-0.008-8.634,1.395-14.613C290.594,24.436,295.432,24.813,296.238,28.556z"></path>
				<g>
					<polygon fill="#96D1F2" points="276.192,67.015 275.876,65.468 275.699,67.044      "></polygon>
					<polygon fill="#96D1F2" points="262.962,61.89 262.633,60.285 263.401,60.889 263.347,62.257      "></polygon>
					<polygon fill="#96D1F2" points="267.003,63.225 266.702,61.769 266.12,61.308 266.054,62.905      "></polygon>
					<polygon fill="#96D1F2" points="271.874,55.551 271.559,54.021 270.971,53.584 271.306,55.685      "></polygon>
					<polygon fill="#96D1F2" points="270.023,56.798 269.709,55.267 270.346,55.77 270.304,56.807      "></polygon>
					<g>
						<g>
							<path fill="#96D1F2" d="M271.238,55.96c-0.281,0.397-0.824,0.36-1.214-0.084c-0.391-0.443-0.479-1.124-0.198-1.521         c0.099-0.14,0.068-0.378-0.068-0.534c-0.517-0.587-0.751-0.484-1.001-0.133l-4.266,6.025         c-0.184,0.259-0.332,0.627,0.153,1.18c0.195,0.221,0.386,0.235,0.485,0.096c0.28-0.397,0.837-0.377,1.228,0.066         c0.39,0.443,0.49,1.107,0.209,1.505c-0.685,0.965-1.965,0.877-2.881-0.165c-1.212-1.378-1.438-3.115-0.605-4.288l4.265-6.025         c0.857-1.211,2.182-1.119,3.37,0.234C271.689,53.424,271.898,55.029,271.238,55.96z"></path>
						</g>
						<g>
							<path fill="#96D1F2" d="M265.264,57.752l7.94,9.181c0.77,0.875,1.842,0.95,2.396,0.167c0.555-0.784,0.381-2.127-0.389-3.002         l-7.941-9.181L265.264,57.752z"></path>
						</g>
					</g>
					<g>
						<g>
							
								<linearGradient id="SVGID_2_" gradientUnits="userSpaceOnUse" x1="3310.3115" y1="-2847.395" x2="3278.6782" y2="-2738.7258" gradientTransform="matrix(0.0518 -1.267 0.6523 0.5135 1876.09 5613.522)">
								<stop offset="0" style="stop-color:#FAF077"></stop>
								<stop offset="1" style="stop-color:#FBAD18"></stop>
							</linearGradient>
							<polygon fill="url(#SVGID_2_)" points="267.533,54.857 264.818,58.931 220.356,8.396 217.959,2.091 223.164,4.428        "></polygon>
						</g>
						<g>
							<path fill="#C0E5F9" d="M271.551,57.48c-0.28,0.397-0.824,0.359-1.214-0.084c-0.391-0.443-0.479-1.124-0.197-1.521         c0.101-0.14,0.067-0.379-0.069-0.534c-0.518-0.588-0.752-0.485-1-0.133l-4.266,6.025c-0.184,0.259-0.333,0.627,0.152,1.179         c0.196,0.223,0.387,0.237,0.484,0.097c0.283-0.396,0.838-0.377,1.229,0.067s0.49,1.106,0.208,1.504         c-0.683,0.966-1.964,0.877-2.88-0.163c-1.211-1.379-1.438-3.116-0.605-4.289l4.265-6.024         c0.857-1.211,2.181-1.119,3.372,0.233C272.004,54.944,272.211,56.549,271.551,57.48z"></path>
						</g>
						<g>
							<path fill="#C0E5F9" d="M265.576,59.272l7.94,9.181c0.769,0.875,1.843,0.951,2.396,0.167c0.556-0.783,0.38-2.127-0.39-3.002         l-7.939-9.182L265.576,59.272z"></path>
						</g>
					</g>
					<polygon fill="#96D1F2" points="263.939,58.075 266.876,53.831 267.231,54.206 264.22,58.459      "></polygon>
				</g>
				<g>
					<path fill="#42BFB8" d="M271.431,61.59l2.851,4.241l2.475-1.805c0.308-0.214,1.525-1.331,1.69-2.109l-1.885-2.722       c0,0-1.923,0.222-2.306,0.243c-0.58,0.031-2.388,0.728-2.388,0.728L271.431,61.59z"></path>
					<path fill="#42BFB8" d="M274.314,65.812c0,0-1.443,0.736-1.951,0.876c-0.385,0.106-1.197,0.148-1.592,0.089       c-0.135-0.02-0.396-0.146-0.441-0.318c-0.061-0.235,0.054-0.312,0.214-0.375c0.347-0.14,1.45-0.343,1.45-0.343l1.871-1.202       L274.314,65.812z"></path>
					<path fill="#42BFB8" d="M272.971,63.682l0.842,0.915c0,0-1.574,1.049-2.139,1.323c-0.482,0.236-1.43,0.521-1.934,0.588       c-0.276,0.037-0.554-0.057-0.676-0.272c-0.124-0.215,0.12-0.443,0.254-0.515c0,0,1.267-0.448,1.695-0.704       C271.514,64.718,272.971,63.682,272.971,63.682z"></path>
					<path fill="#42BFB8" d="M272.92,63.607c0,0-1.523,1.06-2.065,1.353c-0.531,0.286-1.336,0.803-2.038,0.926       c-0.199,0.034-0.583-0.018-0.715-0.248c-0.133-0.231,0.125-0.52,0.338-0.644c0,0,1.287-0.658,1.781-0.956       c0.531-0.323,1.959-1.519,1.959-1.519L272.92,63.607z"></path>
					<path fill="#42BFB8" d="M271.421,61.516l0.894,0.99c0,0-1.517,0.968-2.096,1.26c-0.443,0.224-1.21,0.822-1.71,0.956       c-0.161,0.045-0.571,0.159-0.704-0.071c-0.132-0.231,0.097-0.619,0.282-0.767c0.388-0.309,1.263-0.789,1.687-1.047       C270.223,62.562,271.421,61.516,271.421,61.516z"></path>
				</g>
			</g>
		</g>
		<g>
			<path fill="#42BFB8" d="M274.227,14.173c0,0,0.619-0.58,1.969,0c2.078,0.895,3.859,2.048,6.355,1.363     c0.686-0.32,0.882-1.415,0.882-1.415s0.373-0.111,0.773-0.208c-0.063,0.235-0.63,1.97-0.671,2.483     c-0.045,0.559,0.621,1.124,1.114,0.372c-0.262,0.8-0.74,1.515-0.885,1.748c-0.167,0.267-0.661,2.498-5.466,2.999     C273.494,22.016,274.227,14.173,274.227,14.173z"></path>
		</g>
		<path fill="#5CB7E7" d="M284.008,18.469l0.178-1.49c0,0,1.536-0.544,1.587-1.511c0.051-0.966-0.004-1.346-0.916-1.804    c0,0,0.262-1.446-2.192-2.962c-2.681-1.656-8.275-2.557-8.318-2.183c0,0-0.816-5.584,6.349-5.583    c5.992,0.001,8.546,4.393,8.331,7.764C288.809,14.07,287.748,17.822,284.008,18.469z"></path>
	</g>
	<g opacity="0.5">
		<g>
			<path fill="#FEE356" d="M514.463,261.926c0.012-0.036,9.848-19.489,9.848-19.489c0.009-0.025-9.836-5.708-9.836-5.708     c-0.022-0.014-0.022,25.23-0.022,25.23L514.463,261.926z"></path>
			<path fill="#FBAA1E" d="M504.579,242.437c0.044,0.023,9.873,19.453,9.873,19.453c0.022,0.068,0.022-25.175,0.022-25.175     c-0.022,0.014-9.868,5.697-9.868,5.697C504.61,242.42,504.579,242.437,504.579,242.437z"></path>
			<polygon fill="#FFD63B" points="514.483,236.705 514.483,248.097 519.896,251.161 524.334,242.393    "></polygon>
			<polygon fill="#FFD032" points="514.483,248.075 514.483,236.705 524.334,242.393    "></polygon>
			<path fill="#FFD032" d="M504.623,242.393l9.854-5.692c0.007,0.005,0.007,11.375,0.007,11.375     C514.477,248.079,504.623,242.393,504.623,242.393z"></path>
		</g>
	</g>
	<g opacity="0.5">
		<g>
			<path fill="#FEE356" d="M404.88,84.35c0.013-0.044,12.015-23.779,12.015-23.779c0.011-0.03-12.002-6.964-12.002-6.964     c-0.026-0.017-0.026,30.782-0.026,30.782L404.88,84.35z"></path>
			<path fill="#FBAA1E" d="M392.82,60.571l0.055,0.03l11.991,23.705c0.026,0.083,0.026-30.715,0.026-30.715     c-0.026,0.017-12.039,6.95-12.039,6.95C392.857,60.551,392.82,60.571,392.82,60.571z"></path>
			<polygon fill="#FFD63B" points="404.904,53.578 404.904,67.479 411.508,71.216 416.924,60.517    "></polygon>
			<polygon fill="#FFD032" points="404.904,67.452 404.904,53.578 416.924,60.517    "></polygon>
			<path fill="#FFD032" d="M392.875,60.517l12.021-6.943c0.008,0.005,0.008,13.879,0.008,13.879     C404.896,67.457,392.875,60.517,392.875,60.517z"></path>
		</g>
	</g>
	<g opacity="0.5">
		<g>
			<path fill="#FEE356" d="M75.183,127.47c0.014-0.041,11.636-23.027,11.636-23.027c0.01-0.028-11.622-6.744-11.622-6.744     c-0.026-0.017-0.026,29.811-0.026,29.811L75.183,127.47z"></path>
			<path fill="#FBAA1E" d="M63.505,104.442l0.052,0.03l11.613,22.957c0.026,0.08,0.026-29.747,0.026-29.747     c-0.026,0.017-11.658,6.732-11.658,6.732C63.541,104.423,63.505,104.442,63.505,104.442z"></path>
			<polygon fill="#FFD63B" points="75.208,97.67 75.208,111.132 81.602,114.751 86.846,104.391    "></polygon>
			<polygon fill="#FFD032" points="75.208,111.106 75.208,97.67 86.846,104.391    "></polygon>
			<path fill="#FFD032" d="M63.557,104.391l11.643-6.725c0.009,0.004,0.009,13.44,0.009,13.44     C75.199,111.11,63.557,104.391,63.557,104.391z"></path>
		</g>
	</g>
	<g>
		<g>
			
				<ellipse transform="matrix(-0.9405 -0.3398 0.3398 -0.9405 440.7222 1103.4565)" fill="#F5F4F7" cx="316.974" cy="513.141" rx="6.232" ry="4.303"></ellipse>
			<path fill="#F5F4F7" d="M311.816,509.979l11.085,3.84l-0.427-0.904c-1.205-4.245,1.626-8.987,4.815-11.891     c0.375-0.341-10.652-4.467-10.611-4.309c1.123,4.295-0.879,11.116-4.506,13.059L311.816,509.979z"></path>
			
				<ellipse transform="matrix(-0.9405 -0.3399 0.3399 -0.9405 457.124 1074.7283)" fill="#F5F4F7" cx="322.687" cy="497.329" rx="6.232" ry="4.301"></ellipse>
		</g>
		<g>
			
				<ellipse transform="matrix(0.176 0.9844 -0.9844 0.176 767.3313 140.1001)" fill="#F5F4F7" cx="299.981" cy="528.39" rx="6.232" ry="4.302"></ellipse>
			<path fill="#F5F4F7" d="M299.82,534.438l-2.217-11.521l-0.568,0.821c-3.074,3.166-8.598,3.088-12.706,1.775     c-0.483-0.153,1.459,11.458,1.575,11.344c3.158-3.12,10.067-4.796,13.561-2.626L299.82,534.438z"></path>
			
				<ellipse transform="matrix(0.1759 0.9844 -0.9844 0.1759 756.621 158.8499)" fill="#F5F4F7" cx="283.431" cy="531.349" rx="6.233" ry="4.302"></ellipse>
		</g>
		<g>
			
				<ellipse transform="matrix(0.7646 -0.6445 0.6445 0.7646 -269.4066 333.4091)" fill="#F5F4F7" cx="321.684" cy="535.482" rx="6.232" ry="4.302"></ellipse>
			<path fill="#F5F4F7" d="M327.003,532.597l-8.87,7.68l0.997,0.083c4.277,1.079,6.971,5.902,7.89,10.116     c0.107,0.494,9.194-6.994,9.037-7.037c-4.28-1.175-9.188-6.318-9.056-10.431L327.003,532.597z"></path>
			
				<ellipse transform="matrix(0.7645 -0.6446 0.6446 0.7645 -275.1633 343.4878)" fill="#F5F4F7" cx="332.521" cy="548.337" rx="6.232" ry="4.304"></ellipse>
		</g>
		<path fill="#CDCAD2" d="M313.255,499.091l-10.704,2.098l0.553-1.977c1.366-4.89,0.337-10.137-2.771-14.148l-1.259-1.625    l10.705-2.097l-0.552,1.979c-1.365,4.89-0.339,10.136,2.77,14.147L313.255,499.091z"></path>
		<path fill="#CDCAD2" d="M290.049,512.056l-3.534,10.32l-1.438-1.468c-3.552-3.627-8.607-5.36-13.639-4.675l-2.034,0.277    l3.536-10.318l1.437,1.469c3.551,3.626,8.609,5.358,13.639,4.673L290.049,512.056z"></path>
		<path fill="#CDCAD2" d="M289.673,538.635l7.169,8.222l-1.988,0.512c-4.918,1.262-8.947,4.774-10.867,9.475l-0.777,1.899    l-7.168-8.22l1.988-0.512c4.918-1.262,8.947-4.775,10.867-9.474L289.673,538.635z"></path>
		<path fill="#CDCAD2" d="M312.503,552.251l10.705-2.098l-0.552,1.979c-1.367,4.888-0.339,10.135,2.771,14.146l1.257,1.624    L315.981,570l0.553-1.978c1.365-4.891,0.337-10.137-2.772-14.148L312.503,552.251z"></path>
		<path fill="#CDCAD2" d="M335.709,539.286l3.536-10.318l1.438,1.467c3.551,3.626,8.609,5.359,13.64,4.674l2.034-0.277    l-3.536,10.318l-1.437-1.467c-3.552-3.627-8.61-5.36-13.638-4.674L335.709,539.286z"></path>
		<path fill="#CDCAD2" d="M336.085,512.707l-7.167-8.222l1.989-0.512c4.917-1.262,8.947-4.774,10.866-9.472l0.778-1.902l7.167,8.222    l-1.99,0.51c-4.916,1.263-8.946,4.775-10.867,9.475L336.085,512.707z"></path>
		
			<linearGradient id="SVGID_3_" gradientUnits="userSpaceOnUse" x1="542.2227" y1="187.5347" x2="515.2043" y2="142.3488" gradientTransform="matrix(0.9821 -0.1883 0.1883 0.9821 -236.7535 463.9955)">
			<stop offset="0" style="stop-color:#E8E7EB"></stop>
			<stop offset="1" style="stop-color:#E8E7EB"></stop>
		</linearGradient>
		<circle fill="url(#SVGID_3_)" cx="312.879" cy="525.671" r="26.596"></circle>
		<g>
			
				<ellipse transform="matrix(0.7481 -0.6636 0.6636 0.7481 -265.6566 331.4903)" fill="#F5F4F7" cx="303.807" cy="515.665" rx="6.233" ry="4.303"></ellipse>
			<path fill="#F5F4F7" d="M307.431,510.82l-8.88,7.668l0.062-0.999c-0.45-4.39-4.834-7.75-8.871-9.267     c-0.475-0.179,8.247-8.09,8.267-7.927c0.545,4.405,4.928,10.004,9.015,10.465L307.431,510.82z"></path>
			
				<ellipse transform="matrix(0.7481 -0.6635 0.6635 0.7481 -260.1091 320.8865)" fill="#F4F1F4" cx="292.651" cy="503.086" rx="6.232" ry="4.303"></ellipse>
		</g>
		<g>
			
				<ellipse transform="matrix(-0.9487 -0.3161 0.3161 -0.9487 431.4189 1147.0493)" fill="#F5F4F7" cx="308.75" cy="538.531" rx="6.232" ry="4.303"></ellipse>
			<path fill="#F5F4F7" d="M302.743,537.816l11.081,3.855l-0.896,0.446c-3.576,2.584-4.295,8.063-3.59,12.315     c0.083,0.501-11.129-3.095-10.997-3.195c3.543-2.675,6.197-9.268,4.554-13.04L302.743,537.816z"></path>
			<path fill="#F4F1F4" d="M297.521,552.512c0.753-2.255,4.01-3.201,7.273-2.111c3.266,1.087,5.305,3.797,4.553,6.05     c-0.75,2.257-4.007,3.201-7.272,2.113C298.811,557.477,296.771,554.767,297.521,552.512z"></path>
		</g>
		<g>
			
				<ellipse transform="matrix(0.2005 0.9797 -0.9797 0.2005 772.9036 98.533)" fill="#F5F4F7" cx="326.082" cy="522.817" rx="6.232" ry="4.304"></ellipse>
			<path fill="#F5F4F7" d="M328.466,528.378l-2.2-11.524l0.834,0.552c4.027,1.807,9.129-0.312,12.459-3.049     c0.394-0.321,2.884,11.187,2.732,11.123c-4.086-1.73-11.126-0.733-13.57,2.576L328.466,528.378z"></path>
			
				<ellipse transform="matrix(0.2007 0.9797 -0.9797 0.2007 782.6933 79.6242)" fill="#F4F1F4" cx="342.553" cy="519.444" rx="6.232" ry="4.305"></ellipse>
		</g>
	</g>
	<g>
		<g>
			
				<ellipse transform="matrix(-0.9405 -0.3398 0.3398 -0.9405 795.4458 895.5013)" fill="#F5F4F7" cx="476.137" cy="378.098" rx="9.336" ry="6.445"></ellipse>
			<path fill="#F5F4F7" d="M468.411,373.359l16.606,5.755l-0.638-1.355c-1.808-6.358,2.435-13.467,7.213-17.814     c0.562-0.51-15.96-6.69-15.897-6.453c1.681,6.435-1.316,16.652-6.752,19.562L468.411,373.359z"></path>
			
				<ellipse transform="matrix(-0.9405 -0.3398 0.3398 -0.9405 820.1401 852.4198)" fill="#F5F4F7" cx="484.697" cy="354.409" rx="9.337" ry="6.447"></ellipse>
		</g>
		<g>
			
				<ellipse transform="matrix(0.1759 0.9844 -0.9844 0.1759 766.1025 -113.2328)" fill="#F5F4F7" cx="450.68" cy="400.942" rx="9.336" ry="6.446"></ellipse>
			<path fill="#F5F4F7" d="M450.442,410.003l-3.322-17.26l-0.854,1.23c-4.604,4.744-12.881,4.625-19.033,2.661     c-0.725-0.231,2.184,17.165,2.358,16.995c4.732-4.675,15.081-7.188,20.316-3.936L450.442,410.003z"></path>
			
				<ellipse transform="matrix(0.1759 0.9844 -0.9844 0.1759 750.0153 -85.1853)" fill="#F5F4F7" cx="425.887" cy="405.373" rx="9.337" ry="6.444"></ellipse>
		</g>
		<g>
			
				<ellipse transform="matrix(0.7645 -0.6446 0.6446 0.7645 -151.5126 408.3547)" fill="#F5F4F7" cx="483.193" cy="411.565" rx="9.336" ry="6.444"></ellipse>
			<path fill="#F5F4F7" d="M491.159,407.243l-13.286,11.506l1.493,0.124c6.41,1.616,10.444,8.842,11.819,15.154     c0.162,0.741,13.775-10.477,13.539-10.541c-6.413-1.762-13.764-9.468-13.565-15.628V407.243z"></path>
			
				<ellipse transform="matrix(0.7646 -0.6445 0.6445 0.7646 -160.1026 423.3087)" fill="#F5F4F7" cx="499.428" cy="430.823" rx="9.337" ry="6.446"></ellipse>
		</g>
		<path fill="#CDCAD2" d="M470.567,357.051l-16.037,3.141l0.828-2.962c2.045-7.324,0.507-15.186-4.153-21.195l-1.886-2.434    l16.038-3.141l-0.828,2.963c-2.045,7.324-0.506,15.187,4.153,21.195L470.567,357.051z"></path>
		<path fill="#CDCAD2" d="M435.801,376.472l-5.295,15.459l-2.154-2.198c-5.32-5.434-12.897-8.03-20.432-7.003l-3.048,0.418    l5.297-15.459l2.152,2.198c5.319,5.433,12.897,8.03,20.433,7.001L435.801,376.472z"></path>
		<path fill="#CDCAD2" d="M435.239,416.29l10.738,12.317l-2.979,0.765c-7.365,1.891-13.404,7.152-16.279,14.193l-1.164,2.849    l-10.74-12.316l2.98-0.766c7.367-1.892,13.404-7.154,16.281-14.193L435.239,416.29z"></path>
		<path fill="#CDCAD2" d="M469.441,436.688l16.035-3.143l-0.826,2.964c-2.047,7.324-0.508,15.184,4.151,21.194l1.884,2.433    l-16.035,3.143l0.827-2.965c2.046-7.324,0.507-15.184-4.152-21.195L469.441,436.688z"></path>
		<path fill="#CDCAD2" d="M504.207,417.266l5.296-15.458l2.151,2.198c5.321,5.433,12.899,8.029,20.432,7l3.051-0.415l-5.297,15.459    l-2.154-2.199c-5.32-5.433-12.896-8.031-20.432-7.001L504.207,417.266z"></path>
		<path fill="#CDCAD2" d="M504.77,377.446l-10.74-12.315l2.98-0.765c7.366-1.891,13.403-7.154,16.279-14.195l1.165-2.848    l10.738,12.317l-2.981,0.765c-7.365,1.891-13.402,7.153-16.279,14.193L504.77,377.446z"></path>
		
			<linearGradient id="SVGID_4_" gradientUnits="userSpaceOnUse" x1="727.7813" y1="102.3096" x2="687.3055" y2="34.6174" gradientTransform="matrix(0.9821 -0.1883 0.1883 0.9821 -236.7535 463.9955)">
			<stop offset="0" style="stop-color:#E8E7EB"></stop>
			<stop offset="1" style="stop-color:#E8E7EB"></stop>
		</linearGradient>
		<circle fill="url(#SVGID_4_)" cx="470.004" cy="396.868" r="39.842"></circle>
		<g>
			
				<ellipse transform="matrix(0.748 -0.6636 0.6636 0.748 -138.438 399.1093)" fill="#F5F4F7" cx="456.412" cy="381.879" rx="9.337" ry="6.448"></ellipse>
			<path fill="#F5F4F7" d="M461.84,374.62l-13.304,11.486l0.094-1.494c-0.675-6.577-7.242-11.611-13.29-13.883     c-0.712-0.268,12.354-12.119,12.385-11.876c0.815,6.601,7.381,14.984,13.506,15.679L461.84,374.62z"></path>
			
				<ellipse transform="matrix(0.7481 -0.6636 0.6636 0.7481 -130.1448 383.2226)" fill="#F4F1F4" cx="439.699" cy="363.035" rx="9.335" ry="6.447"></ellipse>
		</g>
		<g>
			
				<ellipse transform="matrix(-0.9487 -0.3161 0.3161 -0.9487 772.3038 957.5493)" fill="#F5F4F7" cx="463.818" cy="416.134" rx="9.336" ry="6.446"></ellipse>
			<path fill="#F5F4F7" d="M454.817,415.063l16.599,5.776l-1.341,0.667c-5.356,3.872-6.434,12.079-5.377,18.451     c0.125,0.749-16.672-4.64-16.478-4.787c5.309-4.008,9.286-13.885,6.824-19.535L454.817,415.063z"></path>
			
				<ellipse transform="matrix(-0.9487 -0.3161 0.3161 -0.9487 749.2147 1001.6086)" fill="#F4F1F4" cx="455.855" cy="440.03" rx="9.336" ry="6.447"></ellipse>
		</g>
		<g>
			
				<ellipse transform="matrix(0.2006 0.9797 -0.9797 0.2006 776.1381 -165.9883)" fill="#F5F4F7" cx="489.78" cy="392.593" rx="9.337" ry="6.445"></ellipse>
			<path fill="#F5F4F7" d="M493.354,400.923l-3.297-17.265l1.248,0.829c6.032,2.705,13.678-0.467,18.668-4.568     c0.586-0.481,4.318,16.758,4.094,16.662c-6.125-2.592-16.669-1.1-20.331,3.858L493.354,400.923z"></path>
			
				<ellipse transform="matrix(0.2006 0.9797 -0.9797 0.2006 790.9014 -194.2074)" fill="#F4F1F4" cx="514.456" cy="387.541" rx="9.336" ry="6.446"></ellipse>
		</g>
	</g>
</g>
</svg>