<svg id="Capa_1" enable-background="new 0 0 512 512" height="512" viewBox="0 0 512 512" width="512" xmlns="http://www.w3.org/2000/svg"><g><path d="m372.553 174.829s1.699 55.229 43.486 98.891c8.16 8.526 7.695 22.078-1.177 29.861-23.828 20.901-75.087 54.402-158.862 54.402s-135.034-33.501-158.862-54.402c-8.872-7.782-9.337-21.335-1.177-29.861 41.787-43.662 43.486-98.891 43.486-98.891" fill="#26457d"/><path d="m422.508 433.953v67.745c0 5.687-4.615 10.302-10.302 10.302h-312.412c-5.687 0-10.302-4.615-10.302-10.302v-67.745c0-52.653 35.552-97.002 83.949-110.353h.01l82.549 34.388 82.548-34.387h.01c48.399 13.351 83.95 57.7 83.95 110.352z" fill="#ffe07d"/><path d="m358.712 331.29c18.304 20.292 29.451 47.165 29.451 76.645v104.065h24.04c5.69 0 10.302-4.612 10.302-10.302v-67.747c-.001-45.022-25.997-83.966-63.793-102.661z" fill="#f1cb86"/><path d="m225.084 384.868 30.916-26.884v-38.504h-52.033c-10.574 0-20.811 1.441-30.531 4.124-.673 24.514 8.773 44.116 17.977 57.27 7.751 11.077 23.469 12.864 33.671 3.994z" fill="#e4f6ff"/><path d="m286.916 384.868-30.916-26.884v-38.504h52.033c10.574 0 20.811 1.441 30.531 4.124.673 24.514-8.773 44.116-17.977 57.27-7.751 11.077-23.469 12.864-33.671 3.994z" fill="#e4f6ff"/><path d="m217.496 277.854v41.626c0 21.265 17.239 38.504 38.504 38.504 21.265 0 38.504-17.239 38.504-38.504v-41.626z" fill="#ffddce"/><path d="m217.496 304.61c12.06 4.233 25.016 6.544 38.504 6.544s26.444-2.311 38.504-6.544v-26.757h-77.008z" fill="#ffcbbe"/><path d="m172.748 107.416v97.592c0 45.979 37.273 83.252 83.252 83.252s83.252-37.273 83.252-83.252v-97.592z" fill="#ffddce"/><path d="m316.358 107.416v108.715c0 28.392-14.223 53.451-35.922 68.477 34.053-10.441 58.816-42.126 58.816-79.6v-97.592z" fill="#ffcbbe"/><path d="m372.553 116.553v58.277l-33.301 16.65-43.561-68.516c-1.813-2.851-5.579-3.719-8.456-1.948l-114.487 70.464-33.301-16.65v-58.277c0-64.371 52.183-116.553 116.553-116.553 64.37 0 116.553 52.182 116.553 116.553z" fill="#30579d"/><path d="m302.289 9.562c22.743 21.27 36.963 51.541 36.963 85.137v63.48h33.301v-41.626c0-47.922-28.925-89.081-70.264-106.991z" fill="#26457d"/><path d="m355.902 191.48h-16.65v-39.65c0-5.69 4.612-10.302 10.302-10.302h6.349c9.196 0 16.65 7.455 16.65 16.65v16.65c0 9.197-7.455 16.652-16.651 16.652z" fill="#ffddce"/><path d="m156.098 191.48h16.65v-39.65c0-5.69-4.612-10.302-10.302-10.302h-6.349c-9.196 0-16.65 7.455-16.65 16.65v16.65c0 9.197 7.455 16.652 16.651 16.652z" fill="#ffddce"/><g fill="#f1cb86"><path d="m157.138 452.241c-4.267 0-7.726 3.459-7.726 7.726v52.033h15.453v-52.032c0-4.268-3.46-7.727-7.727-7.727z"/><path d="m354.862 452.241c-4.267 0-7.726 3.459-7.726 7.726v52.033h15.453v-52.032c-.001-4.268-3.46-7.727-7.727-7.727z"/></g><path d="m339.252 182.892-37.712 18.285c-3.84 1.862-5.443 6.484-3.581 10.324 1.335 2.754 4.09 4.357 6.958 4.357 1.131 0 2.28-.249 3.365-.776l30.971-15.016v-17.174z" fill="#e4f6ff"/><path d="m210.46 201.177-37.712-18.285v17.174l30.971 15.016c1.086.526 2.234.776 3.365.776 2.868 0 5.623-1.604 6.958-4.357 1.861-3.84.258-8.462-3.582-10.324z" fill="#e4f6ff"/><path d="m295.691 122.963 4.458 7.012v-45.129c0-4.23-3.26-7.92-7.488-8.047-4.376-.131-7.964 3.376-7.964 7.723v38.056l2.539-1.563c2.876-1.77 6.642-.903 8.455 1.948z" fill="#26457d"/><path d="m304.91 200.403h-97.82c-4.267 0-7.726 3.459-7.726 7.726v57.874c14.859 13.803 34.756 22.257 56.637 22.257s41.778-8.453 56.637-22.257v-57.873c-.001-4.268-3.46-7.727-7.728-7.727z" fill="#95d6a4"/></g></svg>